<?xml version="1.0" encoding="UTF-8" standalone="no"?>
<svg
   xmlns:dc="http://purl.org/dc/elements/1.1/"
   xmlns:cc="http://creativecommons.org/ns#"
   xmlns:rdf="http://www.w3.org/1999/02/22-rdf-syntax-ns#"
   xmlns:svg="http://www.w3.org/2000/svg"
   xmlns="http://www.w3.org/2000/svg"
   xmlns:sodipodi="http://sodipodi.sourceforge.net/DTD/sodipodi-0.dtd"
   xmlns:inkscape="http://www.inkscape.org/namespaces/inkscape"
   style="background: #F8F8FB;"
   width="92px"
   height="80px"
   viewBox="0 0 92 80"
   version="1.1"
   id="svg7"
   sodipodi:docname="bkg-blue-wave-reverse.svg"
   inkscape:version="1.0.2-2 (e86c870879, 2021-01-15)">
  <metadata
     id="metadata13">
    <rdf:RDF>
      <cc:Work
         rdf:about="">
        <dc:format>image/svg+xml</dc:format>
        <dc:type
           rdf:resource="http://purl.org/dc/dcmitype/StillImage" />
        <dc:title />
      </cc:Work>
    </rdf:RDF>
  </metadata>
  <defs
     id="defs11" />
  <sodipodi:namedview
     pagecolor="#ffffff"
     bordercolor="#666666"
     borderopacity="1"
     objecttolerance="10"
     gridtolerance="10"
     guidetolerance="10"
     inkscape:pageopacity="0"
     inkscape:pageshadow="2"
     inkscape:window-width="1366"
     inkscape:window-height="705"
     id="namedview9"
     showgrid="false"
     inkscape:zoom="3.8161049"
     inkscape:cx="68.67806"
     inkscape:cy="62.30223"
     inkscape:window-x="-8"
     inkscape:window-y="-8"
     inkscape:window-maximized="1"
     inkscape:current-layer="svg7"
     inkscape:document-rotation="0" />
  <g
     id="Symbols"
     stroke="none"
     stroke-width="1"
     fill="none"
     fill-rule="evenodd"
     transform="translate(223.32466,64.206592)">
    <g
       id="g4"
       transform="translate(-41)"
       fill="#1a2238">
      <g
         id="Group"
         transform="translate(41)">
        <path
           d="m 1352.0046,0 c 9.0788,0 17.1943,3.14 22.5765,8.072 0,0 8.7794,7.928 22.4203,7.928 v 0 H 1399 V -441.09903 H -44.588588 l 3.589017,457.047943 c 8.176346,-0.41928 15.434884,-3.391322 20.414712,-7.876913 0,0 8.779376,-8.072 22.5894854,-8.072 9.0787476,0 17.1943016,3.14 22.5764696,8.072 0,0 8.779377,7.928 22.420276,7.928 8.987635,0 17.031601,-3.08 22.413769,-7.928 0,0 8.779376,-8.072 22.589485,-8.072 9.078744,0 17.194304,3.14 22.576474,8.072 0,0 8.77937,7.928 22.42027,7.928 8.98764,0 17.0316,-3.08 22.41377,-7.928 0,0 8.77938,-8.072 22.58949,-8.072 9.07874,0 17.1943,3.14 22.57647,8.072 0,0 8.77937,7.928 22.42027,7.928 8.98764,0 17.0316,-3.08 22.41377,-7.928 0,0 8.77938,-8.072 22.58949,-8.072 9.07874,0 17.1943,3.14 22.57647,8.072 0,0 8.77937,7.928 22.42027,7.928 8.98764,0 17.0316,-3.08 22.41377,-7.928 0,0 8.77938,-8.072 22.58949,-8.072 9.07874,0 17.1943,3.14 22.57647,8.072 0,0 8.77937,7.928 22.42027,7.928 8.98764,0 17.0316,-3.08 22.41377,-7.928 0,0 8.77938,-8.072 22.58949,-8.072 9.07874,0 17.1943,3.14 22.57647,8.072 0,0 8.77937,7.928 22.42027,7.928 8.98764,0 17.0316,-3.08 22.41377,-7.928 0,0 8.77938,-8.072 22.58949,-8.072 9.07874,0 17.1943,3.14 22.57647,8.072 0,0 8.77937,7.928 22.42027,7.928 8.98764,0 17.0316,-3.08 22.41377,-7.928 0,0 8.77938,-8.072 22.58949,-8.072 9.07874,0 17.1943,3.14 22.57647,8.072 0,0 8.77937,7.928 22.42027,7.928 8.98764,0 17.0316,-3.08 22.41377,-7.928 0,0 8.77938,-8.072 22.58949,-8.072 9.07874,0 17.1943,3.14 22.57647,8.072 0,0 8.77937,7.928 22.42027,7.928 8.98764,0 17.0316,-3.08 22.41377,-7.928 0,0 8.77938,-8.072 22.58949,-8.072 9.07874,0 17.1943,3.14 22.57647,8.072 0,0 8.77937,7.928 22.42027,7.928 8.98764,0 17.0316,-3.08 22.41377,-7.928 0,0 8.77938,-8.072 22.58949,-8.072 9.07874,0 17.1943,3.14 22.57647,8.072 0,0 8.77937,7.928 22.42027,7.928 8.98764,0 17.0316,-3.08 22.41377,-7.928 0,0 8.77938,-8.072 22.58949,-8.072 9.07877,0 17.19427,3.14 22.57647,8.072 0,0 8.7794,7.928 22.4203,7.928 8.9876,0 17.0316,-3.08 22.4137,-7.928 0,0 8.7794,-8.072 22.5895,-8.072 9.0788,0 17.1943,3.14 22.5765,8.072 0,0 8.7794,7.928 22.4203,7.928 8.9876,0 17.0316,-3.08 22.4137,-7.928 0,0 8.7794,-8.072 22.5895,-8.072 9.0788,0 17.1943,3.14 22.5765,8.072 0,0 8.7794,7.928 22.4203,7.928 8.9876,0 17.0316,-3.08 22.4137,-7.928 0,0 8.7794,-8.072 22.5895,-8.072 9.0788,0 17.1943,3.14 22.5765,8.072 0,0 8.7794,7.928 22.4203,7.928 8.9876,0 17.0316,-3.08 22.4137,-7.928 0,0 8.7794,-8.072 22.5895,-8.072 z"
           id="Mask"
           sodipodi:nodetypes="scsccccccscscscscscscscscscscscscscscscscscscscscscscscscscscscscscscs" />
      </g>
    </g>
  </g>
  <path
     style="fill:#0b4141;fill-opacity:1;stroke-width:0.148699"
     d="m -3.7281777,-376.69994 3.59974002,457.171989 0.483272,-0.07011 c 0.265799,-0.03856 1.21594698,-0.146228 2.11143898,-0.239257 6.561206,-0.68161 12.7213977,-3.266137 17.5539877,-7.364827 5.644778,-4.787539 13.414557,-7.855326 20.834607,-8.226253 9.314556,-0.465633 17.610851,2.159549 24.146806,7.640733 4.763466,3.994739 10.744913,6.703111 17.258095,7.814388 1.683466,0.287231 2.549123,0.341933 5.492834,0.347093 2.122006,0.0037 4.049232,-0.07112 4.907064,-0.190568 4.071547,-0.566918 7.797403,-1.671234 11.078063,-3.283462 2.44171,-1.199933 4.13992,-2.308 6.39406,-4.172045 4.33641,-3.58598 9.07817,-5.949415 14.57249,-7.263374 5.1439,-1.230157 11.08256,-1.261561 16.34749,-0.08645 4.8402,1.080317 9.91291,3.459963 13.09489,6.142897 5.64239,4.757479 11.55759,7.48193 18.66171,8.595301 1.29228,0.202528 2.56371,0.267654 5.20446,0.26658 1.92193,-7.44e-4 3.67844,-0.05222 3.90334,-0.114305 l 0.40892,-0.112885 1.49891,-457.077845 v 0 l -59.37326,0.2213 z"
     id="path838"
     sodipodi:nodetypes="ccssssssccsssssscscccccc" />
</svg>
