<?xml version="1.0" encoding="UTF-8" standalone="no"?>
<svg
   width="585"
   height="809"
   viewBox="0 0 585 809"
   fill="none"
   version="1.1"
   id="svg80"
   sodipodi:docname="Contacto.svg"
   inkscape:version="1.1 (c68e22c387, 2021-05-23)"
   xmlns:inkscape="http://www.inkscape.org/namespaces/inkscape"
   xmlns:sodipodi="http://sodipodi.sourceforge.net/DTD/sodipodi-0.dtd"
   xmlns="http://www.w3.org/2000/svg"
   xmlns:svg="http://www.w3.org/2000/svg">
  <sodipodi:namedview
     id="namedview82"
     pagecolor="#ffffff"
     bordercolor="#666666"
     borderopacity="1.0"
     inkscape:pageshadow="2"
     inkscape:pageopacity="0.0"
     inkscape:pagecheckerboard="0"
     showgrid="false"
     inkscape:zoom="0.53646477"
     inkscape:cx="245.12327"
     inkscape:cy="343.9182"
     inkscape:window-width="1366"
     inkscape:window-height="705"
     inkscape:window-x="-8"
     inkscape:window-y="-8"
     inkscape:window-maximized="1"
     inkscape:current-layer="Bottom/Skinny Jeans 1" />
  <g
     id="Contacto"
     clip-path="url(#clip0_7:176)">
    <g
       id="Background"
       opacity="0.2">
      <path
         id="Oval"
         fill-rule="evenodd"
         clip-rule="evenodd"
         d="M350 523C477.025 523 580 420.025 580 293C580 165.975 477.025 63 350 63C222.975 63 120 165.975 120 293C120 420.025 222.975 523 350 523Z"
         fill="#BB3E03" />
      <path
         id="Oval_2"
         fill-rule="evenodd"
         clip-rule="evenodd"
         d="M490 809C512.644 809 531 790.644 531 768C531 745.356 512.644 727 490 727C467.356 727 449 745.356 449 768C449 790.644 467.356 809 490 809Z"
         fill="#0A9396" />
      <path
         id="Polygon"
         fill-rule="evenodd"
         clip-rule="evenodd"
         d="M312 0L361 49L312 98L263 49L312 0Z"
         fill="#030314" />
      <path
         id="Polygon_2"
         fill-rule="evenodd"
         clip-rule="evenodd"
         d="M176 690L200 714L176 738L152 714L176 690Z"
         fill="#BB3E03" />
      <path
         id="Polygon_3"
         fill-rule="evenodd"
         clip-rule="evenodd"
         d="M523 63L535 75L523 87L511 75L523 63Z"
         fill="#0A9396" />
      <path
         id="Floating Random Circle"
         fill-rule="evenodd"
         clip-rule="evenodd"
         d="M69.5 659C107.884 659 139 627.884 139 589.5C139 551.116 107.884 520 69.5 520C31.1162 520 0 551.116 0 589.5C0 627.884 31.1162 659 69.5 659Z"
         fill="#1D1D2C"
         fill-opacity="0.8" />
    </g>
    <g
       id="base"
       filter="url(#filter0_d_7:176)">
      <rect
         x="39.7818"
         y="140.884"
         width="251"
         height="516"
         rx="36.45"
         transform="rotate(-10.3092 39.7818 140.884)"
         fill="#191919"
         id="rect9" />
    </g>
    <path
       id="Screen"
       fill-rule="evenodd"
       clip-rule="evenodd"
       d="M77.2956 144.882C64.0836 147.238 55.2838 159.859 57.6406 173.071L135.739 610.879C138.096 624.091 150.717 632.891 163.929 630.534L340.81 598.981C354.022 596.624 362.822 584.003 360.465 570.791L282.367 132.984C280.01 119.772 267.389 110.972 254.177 113.329L226.602 118.248L227.314 122.236C228.649 129.722 223.663 136.874 216.176 138.21L122.235 154.967C114.748 156.303 107.597 151.316 106.261 143.83L105.55 139.841L77.2956 144.882Z"
       fill="white" />
    <g
       id="bars/nav bar/small">
      <g
         id="iPhone X/Status Bars/Status Bar (Black)">
        <g
           id="Battery">
          <rect
             id="Border"
             opacity="0.35"
             x="247.375"
             y="139.215"
             width="21"
             height="10.3333"
             rx="2.16667"
             transform="rotate(-10.8812 247.375 139.215)"
             stroke="black" />
          <path
             id="Cap"
             opacity="0.4"
             d="M270.068 138.077L270.823 142.005C271.55 141.521 271.915 140.648 271.75 139.791C271.585 138.933 270.922 138.258 270.068 138.077"
             fill="black" />
          <rect
             id="Capacity"
             x="249.131"
             y="140.405"
             width="18"
             height="7.33333"
             rx="1.33333"
             transform="rotate(-10.8812 249.131 140.405)"
             fill="#35F416" />
        </g>
        <path
           id="Wifi"
           fill-rule="evenodd"
           clip-rule="evenodd"
           d="M234.055 143.149C236.231 142.73 238.485 143.164 240.35 144.36C240.491 144.453 240.68 144.415 240.775 144.275L241.69 142.911C241.738 142.84 241.755 142.753 241.738 142.669C241.722 142.585 241.672 142.511 241.601 142.464C236.699 139.293 230.169 140.548 226.792 145.311C226.744 145.381 226.725 145.468 226.741 145.552C226.756 145.636 226.805 145.711 226.875 145.759L228.231 146.687C228.371 146.782 228.561 146.747 228.657 146.608C229.946 144.805 231.879 143.567 234.055 143.149ZM234.771 146.876C235.967 146.646 237.205 146.869 238.246 147.501C238.388 147.592 238.576 147.553 238.67 147.414L239.584 146.05C239.632 145.978 239.65 145.89 239.633 145.806C239.615 145.721 239.565 145.647 239.493 145.6C236.311 143.608 232.132 144.412 229.916 147.441C229.866 147.512 229.847 147.599 229.862 147.684C229.878 147.769 229.927 147.844 229.998 147.893L231.352 148.82C231.491 148.915 231.681 148.881 231.779 148.744C232.51 147.772 233.577 147.106 234.771 146.876ZM237.525 148.947C237.543 149.032 237.525 149.12 237.476 149.191L235.895 151.548C235.849 151.617 235.777 151.665 235.695 151.681C235.613 151.696 235.529 151.679 235.46 151.631L233.118 150.029C233.046 149.981 232.997 149.906 232.982 149.82C232.967 149.735 232.989 149.648 233.041 149.579C234.09 148.278 235.924 147.926 237.381 148.744C237.455 148.789 237.507 148.863 237.525 148.947Z"
           fill="#1D1D2C"
           fill-opacity="0.8" />
        <path
           id="Cellular Connection"
           fill-rule="evenodd"
           clip-rule="evenodd"
           d="M220.27 143.821L219.288 144.01C218.746 144.114 218.391 144.639 218.495 145.181L220.131 153.692C220.236 154.234 220.76 154.589 221.302 154.485L222.284 154.296C222.826 154.192 223.182 153.668 223.077 153.126L221.441 144.615C221.337 144.072 220.813 143.717 220.27 143.821ZM215.146 147.183L216.128 146.994C216.671 146.89 217.195 147.245 217.299 147.787L218.495 154.006C218.599 154.549 218.244 155.073 217.701 155.177L216.719 155.366C216.177 155.47 215.653 155.115 215.548 154.573L214.353 148.353C214.249 147.811 214.604 147.287 215.146 147.183ZM211.986 150.166L211.004 150.355C210.462 150.459 210.106 150.983 210.211 151.526L210.966 155.454C211.07 155.996 211.594 156.351 212.137 156.247L213.119 156.058C213.661 155.954 214.016 155.43 213.912 154.887L213.157 150.959C213.052 150.417 212.528 150.062 211.986 150.166ZM207.781 153.011L206.799 153.2C206.256 153.304 205.901 153.828 206.005 154.371L206.383 156.335C206.487 156.877 207.011 157.232 207.554 157.128L208.536 156.939C209.078 156.835 209.433 156.311 209.329 155.768L208.951 153.804C208.847 153.262 208.323 152.907 207.781 153.011Z"
           fill="#1D1D2C"
           fill-opacity="0.8" />
      </g>
    </g>
    <g
       id="Hombre">
      <g
         id="Head/Front">
        <g
           id="Head">
          <path
             id="Head_2"
             fill-rule="evenodd"
             clip-rule="evenodd"
             d="m 436.905,320.598 c -5.235,4.488 -10.587,7.036 -13.275,6.651 -6.742,-0.964 -10.262,-27.05 -6.356,-38.045 3.906,-10.996 29.401,-18.99 32.992,1.272 1.246,7.032 -0.769,13.729 -4.214,19.435 l 11.314,35.809 -20.944,2.818 z"
             fill="#b28b67" />
        </g>
        <path
           id="Hair"
           fill-rule="evenodd"
           clip-rule="evenodd"
           d="m 432.996,295.09 c -2.141,-2.708 -4.132,-4.726 -6.54,-5.729 -9.19,1.398 -10.469,-0.263 -11.149,-6.352 1.357,-1.365 6.386,-4.032 12.201,-5.374 2.893,-1.342 6.464,-1.643 10.06,-0.538 4.369,0.744 8.26,3.086 10.43,8.161 6.918,10.024 3.835,21.842 -1.582,26.467 -1.781,-1.808 -3.357,-3.581 -4.778,-5.289 0.857,-1.172 1.3,-2.705 1.12,-4.312 -0.353,-3.164 -2.983,-5.415 -5.875,-5.025 -0.213,0.028 -0.421,0.07 -0.624,0.125 0.312,3.974 1.27,17.433 0.382,22.272 -1.047,5.705 -10.574,8.353 -13.949,8.807 -2.915,0.393 -3.152,-2.642 -3.323,-4.816 -0.024,-0.314 -0.048,-0.609 -0.077,-0.874 -0.062,-0.553 0.596,-0.64 1.339,-0.738 0.964,-0.128 2.073,-0.274 1.938,-1.485 -0.148,-1.32 -1.927,-2.109 -3.52,-2.814 -0.994,-0.44 -1.914,-0.848 -2.32,-1.332 -1.281,-1.529 -1.902,-3.74 -0.252,-3.962 0.902,-0.121 2.204,0.281 3.769,0.766 2.364,0.731 5.329,1.649 8.433,1.231 5.128,-0.69 4.327,-18.959 4.317,-19.189 z"
           fill="#bb3e03" />
      </g>
      <g
         id="Bottom/Skinny Jeans 1">
        <path
           id="Leg"
           fill-rule="evenodd"
           clip-rule="evenodd"
           d="m 472.11,426.719 -32.237,121.446 -15.171,91.186 -15.204,-0.004 15.231,-212.64 z"
           fill="#997659" />
        <path
           id="Leg_2"
           fill-rule="evenodd"
           clip-rule="evenodd"
           d="m 486.584,426.723 c -2.264,63.094 -1.386,97.508 -0.885,103.24 0.502,5.733 3.348,44.125 22.787,111.333 l -15.813,-0.004 c -25.751,-64.476 -34.737,-102.87 -37.69,-111.337 -2.953,-8.466 -11.673,-42.882 -24.4,-103.246 z"
           fill="#b28b67" />
        <path
           id="Pant"
           fill-rule="evenodd"
           clip-rule="evenodd"
           d="m 472.801,426.719 c -8.387,41.791 -22.893,108.499 -43.517,200.124 l -22.238,-0.005 c -1.619,-94.051 5.384,-155.95 17.495,-200.131 z"
           fill="#0a9396" />
        <path
           id="Pant_2"
           fill-rule="evenodd"
           clip-rule="evenodd"
           d="m 486.696,426.723 c -2.217,63.094 3.471,125.256 21.12,201.123 l -23.727,-0.007 C 458.291,564.326 439.804,502.467 427.178,426.708 Z"
           fill="#3cd3d1" />
        <g
           id="Left Shoe"
           style="fill:#283039;fill-opacity:1">
          <path
             id="Shoe"
             fill-rule="evenodd"
             clip-rule="evenodd"
             d="M 510.737,653.805 509.941,639.7 c -0.037,-0.653 -0.68,-1.097 -1.319,-0.957 -7.605,1.667 -17.949,-2.262 -17.949,-2.262 -10.468,8.11 -25.508,11.876 -31.026,13.045 -1.148,0.243 -1.881,1.395 -1.586,2.531 l 1.196,4.622 31.411,0.008 18.323,0.004 z"
             fill="#ffffff"
             style="fill:#283039;fill-opacity:1" />
        </g>
        <g
           id="Right Shoe">
          <path
             id="Shoe_2"
             fill-rule="evenodd"
             clip-rule="evenodd"
             d="m 428.092,653.784 -0.795,-14.105 c -0.037,-0.653 -0.681,-1.097 -1.32,-0.957 -7.605,1.667 -17.948,-2.262 -17.948,-2.262 -10.468,8.11 -25.509,11.876 -31.027,13.045 -1.148,0.243 -1.88,1.395 -1.586,2.531 l 1.196,4.622 31.411,0.008 18.324,0.004 z"
             fill="#ffffff"
             style="fill:#283039;fill-opacity:1" />
        </g>
      </g>
      <g
         id="Body/Long Sleeve 1">
        <path
           id="Skin"
           fill-rule="evenodd"
           clip-rule="evenodd"
           d="m 372.505,447.906 25.341,-26.116 8.011,15.819 -26.17,16.219 c -6.678,11.071 -10.571,15.836 -11.68,14.294 -0.935,-1.301 -0.473,-2.698 -0.048,-3.984 0.331,-1.003 0.64,-1.938 0.249,-2.709 -0.891,-1.76 -6.106,-0.861 -11.022,0.225 -4.916,1.085 -3.739,-1.526 -2.676,-2.88 4.695,-4 10.694,-7.623 17.995,-10.868 z m 150.38,19.776 c -3.19,-5.334 -18.074,-59.5 -18.074,-59.5 l -18.228,2.532 c 0,0 23.549,57.399 25.302,60.869 2.278,4.508 0.077,11.798 -1.416,16.742 -0.231,0.765 -0.445,1.474 -0.623,2.107 2.948,0.993 4.106,-0.842 5.327,-2.777 1.378,-2.185 2.837,-4.497 7.046,-3.005 1.626,0.576 3.185,1.306 4.708,2.02 5.262,2.464 10.096,4.728 15.773,-0.244 0.9,-0.788 1.691,-3.407 -1.102,-4.994 -6.959,-3.954 -17.153,-11.142 -18.713,-13.75 z"
           fill="#b28b67" />
        <path
           id="Coat Back"
           fill-rule="evenodd"
           clip-rule="evenodd"
           d="m 443.641,331.409 -7.704,-0.401 c -25.045,30.236 -30.871,82.635 -62.184,114.19 l 9.51,10.094 c 58.638,-16.078 66.474,-80.089 60.378,-123.883 z"
           fill="#eb9b00" />
        <path
           id="Shirt"
           fill-rule="evenodd"
           clip-rule="evenodd"
           d="m 488.117,430.766 c 0,0 -45.386,6.106 -66.77,8.983 -3.051,0.411 -3.014,-4.488 -2.844,-6.98 1.957,-28.764 18.45,-61.705 13.99,-101.674 l 18.891,-5.896 c 19.058,25.895 28.419,59.675 36.733,105.567 z"
           fill="#1d1d2c" />
        <path
           id="Coat Front"
           fill-rule="evenodd"
           clip-rule="evenodd"
           d="m 497.862,449.811 c 3.881,7.484 7.592,13.97 10.954,18.884 l 14.32,-1.927 c -4.542,-54.722 -28.082,-94.133 -46.687,-117.302 3.473,-0.746 6.457,-2.776 8.016,-6.993 5.489,-14.848 2.093,-22.16 -5.711,-23.663 -4.291,-0.827 -8.076,0.641 -12.607,2.398 -3.708,1.437 -7.915,3.069 -13.308,3.795 -0.002,0 -0.003,0 -0.005,0.001 -0.523,0.07 -0.994,0.172 -1.418,0.304 l -6.346,1.258 c 0,0 -15.209,99.732 0.017,130.346 z"
           fill="#eb9b00" />
        <path
           id="Shade"
           fill-rule="evenodd"
           clip-rule="evenodd"
           d="m 497.862,449.811 c -5.092,-9.819 -10.477,-21.354 -15.754,-33.306 0.086,13.932 -0.783,28.054 -3.971,35.96 z"
           fill="#000000"
           fill-opacity="0.1" />
      </g>
    </g>
    <g
       id="mujer">
      <g
         id="Head/Front_2">
        <g
           id="Head_3">
          <path
             id="Head_4"
             fill-rule="evenodd"
             clip-rule="evenodd"
             d="m 251.711,251.522 c 5.128,4.349 10.446,6.915 13.179,6.671 6.855,-0.614 11.388,-24.506 7.847,-34.797 -3.541,-10.292 -29.03,-18.699 -33.418,-0.175 -1.523,6.429 0.266,12.682 3.538,18.081 l -12.779,32.533 21.08,3.452 z"
             fill="#ff7946" />
        </g>
        <path
           id="hair"
           fill-rule="evenodd"
           clip-rule="evenodd"
           d="m 266.098,211.731 c -2.737,-1.347 -6.87,-2.329 -8.662,-2.416 1.392,-2.226 2.225,-4.824 2.326,-7.47 0.098,-2.571 -0.68,-4.901 -1.356,-7.319 -0.312,-1.115 -0.688,-2.235 -1.372,-3.161 -0.696,-0.943 -1.658,-1.647 -2.716,-2.082 -1.083,-0.444 -2.263,-0.615 -3.429,-0.564 -0.516,0.023 -1,0.177 -1.51,0.223 -0.522,0.048 -0.714,-0.304 -1.026,-0.678 -0.752,-0.9 -1.975,-1.484 -3.061,-1.799 -1.219,-0.354 -2.54,-0.378 -3.792,-0.165 -1.219,0.208 -2.434,0.671 -3.422,1.473 -0.44,0.356 -0.855,0.777 -1.16,1.266 -0.125,0.201 -0.161,0.326 -0.389,0.369 -0.212,0.041 -0.445,0.005 -0.663,0.04 -2.1,0.347 -4.052,1.601 -5.301,3.418 -0.729,1.06 -1.316,3.039 -1.617,5.317 -0.301,2.278 0.784,8.527 2.35,10.998 1.398,2.205 3.709,3.888 6.048,4.842 -1.914,1.574 -3.364,3.696 -4.541,5.902 -1.278,2.397 -2.244,4.947 -2.881,7.602 -0.605,2.522 -1.065,5.219 -0.873,7.815 0.179,2.429 1.066,4.542 2.871,6.086 0.827,0.708 1.747,1.288 2.678,1.833 0.918,0.537 1.84,1.065 2.831,1.444 1.877,0.718 4.125,1.016 5.873,-0.28 0.63,-0.467 1.337,-1.068 1.841,-1.682 0.182,-0.221 0.293,-0.367 0.16,-0.634 -0.159,-0.319 -0.456,-0.592 -0.683,-0.859 -1.3,-1.521 -1.954,-3.375 -1.858,-5.435 0.097,-2.09 1.083,-4.647 3.23,-5.215 2.65,-0.701 5.161,1.013 7.162,2.555 1.47,-3.129 3.869,-5.771 7.118,-6.784 3.594,-1.122 7.437,-0.693 11.085,-1.563 0.95,-0.226 1.925,-0.501 2.704,-1.152 0.326,-0.273 0.714,-0.631 0.892,-1.033 0.234,-0.527 -0.047,-1.047 -0.252,-1.522 -1.086,-2.516 -5.868,-8.023 -8.605,-9.37 z"
           fill="#ecc941" />
      </g>
      <g
         id="Bottom/Skinny Jeans 1_2">
        <path
           id="Leg_3"
           fill-rule="evenodd"
           clip-rule="evenodd"
           d="m 216.528,342.81 30.363,124.908 19.627,103.718 10.196,3.176 -18.826,-218.921 z"
           fill="#ff7946" />
        <g
           id="Right Shoe_2">
          <path
             id="shoe"
             fill-rule="evenodd"
             clip-rule="evenodd"
             d="m 264.391,565.327 c -0.887,-0.761 -2.243,-0.685 -2.947,0.248 -1.136,1.505 -2.647,3.669 -3.076,5.047 -0.714,2.292 -1.317,6.926 -1.317,6.926 2.666,0.831 47.926,14.927 47.926,14.927 0,0 3.786,-5.575 -0.086,-7.32 -3.872,-1.744 -6.411,-2.969 -6.411,-2.969 L 279.372,565.42 c -0.423,-0.371 -1.069,-0.32 -1.429,0.112 l -2.438,2.93 c 0,0 -4.266,0.573 -6.595,-0.152 -1.356,-0.423 -3.208,-1.857 -4.519,-2.983 z"
             fill="#bb3e03" />
        </g>
        <path
           id="Pant_3"
           fill-rule="evenodd"
           clip-rule="evenodd"
           d="m 257.808,553.094 21.51,0.194 c 0,0 -0.927,-42.54 -5.275,-94.634 -4.348,-52.095 -12.478,-101.818 -12.478,-101.818 L 206.029,339.54 c 0,0 6.987,61.87 19.949,114.693 12.963,52.823 31.83,98.861 31.83,98.861 z"
           fill="#1d1d2c" />
        <path
           id="Leg_4"
           fill-rule="evenodd"
           clip-rule="evenodd"
           d="m 212.379,341.517 c -17.478,35.127 -43.688,78.798 -45.227,79.918 -1.026,0.747 -29.768,1.336 -86.2267,1.767 l -0.5894,9.65 c 63.9701,10.262 98.3601,13.477 103.1691,9.645 7.214,-5.749 49.831,-55.639 70.412,-88.043 z"
           fill="#ff7946" />
        <path
           id="Pant_4"
           fill-rule="evenodd"
           clip-rule="evenodd"
           d="m 101.387,421.075 -0.617,15.645 c 44.547,18.267 73.507,24.113 86.881,17.537 13.373,-6.575 36.538,-39.508 69.494,-98.797 l -52.956,-16.494 c -24.539,49.313 -37.643,74.905 -39.31,76.776 -1.667,1.872 -22.832,3.649 -63.492,5.333 z"
           fill="#1d1d2c" />
        <g
           id="Left Shoe_2">
          <path
             id="shoe_2"
             fill-rule="evenodd"
             clip-rule="evenodd"
             d="m 85.1504,423.031 c 0.5988,-1.008 0.2873,-2.334 -0.7582,-2.866 -1.6852,-0.857 -4.0831,-1.968 -5.518,-2.152 -2.3875,-0.307 -7.0691,-0.103 -7.0691,-0.103 -0.3524,2.762 -6.3336,49.649 -6.3336,49.649 0,0 6.1684,2.76 7.2119,-1.344 1.0434,-4.103 1.8074,-6.808 1.8074,-6.808 l 13.198,-21.65 c 0.2936,-0.481 0.1307,-1.111 -0.3597,-1.39 l -3.3181,-1.89 c 0,0 -1.3134,-4.092 -1.0055,-6.506 0.1786,-1.4 1.2648,-3.459 2.1449,-4.94 z"
             fill="#bb3e03" />
        </g>
      </g>
      <g
         id="Body/Long Sleeve 1_2">
        <path
           id="Skin_2"
           fill-rule="evenodd"
           clip-rule="evenodd"
           d="m 299.527,286.726 -33.211,11.655 9.285,13.891 25.463,-16.594 c 12.194,-1.296 17.915,-2.768 17.162,-4.416 -0.635,-1.389 -1.997,-1.567 -3.252,-1.732 -0.977,-0.128 -1.889,-0.247 -2.342,-0.924 -1.033,-1.546 2.125,-5.841 5.296,-9.79 3.171,-3.948 0.48,-4 -1.126,-3.62 -5.464,2.515 -11.222,6.359 -17.275,11.53 z m 26.827,28.377 -14.592,5.142 -1.431,13.523 c 0,0 9.695,-4.821 17.496,-5.674 9.947,-1.086 14.127,-2.476 19.743,-7.621 3.005,-2.752 6.156,-8.759 4.128,-11.215 -0.779,-0.943 -4.47,0.378 -8.236,1.726 -2.87,1.027 -5.784,2.069 -7.485,2.138 -2.29,0.092 -1.562,-2.729 -0.98,-4.983 0.417,-1.618 0.76,-2.943 -0.143,-2.692 -3.93,-0.574 -8.5,9.656 -8.5,9.656 z"
           fill="#ff7946" />
        <path
           id="Sleeve"
           fill-rule="evenodd"
           clip-rule="evenodd"
           d="m 252.076,292.242 c 10.697,1.636 25.304,1.719 42.072,-5.408 l 3.794,14.243 c -12.177,8.653 -28.308,14.76 -41.134,12.289 -10.107,-1.947 -13.292,-15.041 -4.732,-21.124 z"
           fill="#0a9396" />
        <path
           id="Clothes"
           fill-rule="evenodd"
           clip-rule="evenodd"
           d="m 208.395,378.414 c -9.936,-2.982 -19.065,-5.722 -24.77,-5.542 -2.914,-21.097 4.306,-32.897 10.972,-43.791 4.017,-6.565 7.833,-12.802 9.107,-20.545 3.709,-22.549 27.556,-54.288 30.229,-53.851 l 0.767,0.126 21.178,3.468 2.425,0.397 c -1.196,14.134 0.98,30.005 3.17,45.979 0.512,3.73 1.024,7.466 1.494,11.187 17.055,6.908 58.666,-0.604 58.666,-0.604 0,0 6.575,22.103 4.398,30.7 -24.843,8.173 -45.332,10.276 -61.553,7.98 -1.053,9.646 -3.71,18.554 -8.993,26.225 -7.078,10.279 -28.496,3.851 -47.09,-1.729 z"
           fill="#0a9396" />
      </g>
    </g>
  </g>
  <defs
     id="defs78">
    <filter
       id="filter0_d_7:176"
       x="1.71018"
       y="89.8929"
       width="395.435"
       height="608.732"
       filterUnits="userSpaceOnUse"
       color-interpolation-filters="sRGB">
      <feFlood
         flood-opacity="0"
         result="BackgroundImageFix"
         id="feFlood60" />
      <feColorMatrix
         in="SourceAlpha"
         type="matrix"
         values="0 0 0 0 0 0 0 0 0 0 0 0 0 0 0 0 0 0 127 0"
         result="hardAlpha"
         id="feColorMatrix62" />
      <feOffset
         dx="-10"
         dy="22"
         id="feOffset64" />
      <feGaussianBlur
         stdDeviation="17"
         id="feGaussianBlur66" />
      <feColorMatrix
         type="matrix"
         values="0 0 0 0 0 0 0 0 0 0 0 0 0 0 0 0 0 0 0.1 0"
         id="feColorMatrix68" />
      <feBlend
         mode="normal"
         in2="BackgroundImageFix"
         result="effect1_dropShadow_7:176"
         id="feBlend70" />
      <feBlend
         mode="normal"
         in="SourceGraphic"
         in2="effect1_dropShadow_7:176"
         result="shape"
         id="feBlend72" />
    </filter>
    <clipPath
       id="clip0_7:176">
      <rect
         width="585"
         height="809"
         fill="white"
         id="rect75" />
    </clipPath>
  </defs>
</svg>
