<svg width="786" height="1285" viewBox="0 0 786 1285" fill="none" xmlns="http://www.w3.org/2000/svg">
<g id="Contacto" clip-path="url(#clip0_7:176)">
<g id="base" filter="url(#filter0_d_7:176)">
<rect x="92.9457" y="250.883" width="282.636" height="581.037" rx="36.45" transform="rotate(-10.3092 92.9457 250.883)" fill="#191919"/>
</g>
<path id="fondo" d="M697.995 286.088C772.717 353.531 798.026 477.579 769.704 573.324C741.382 669.069 659.429 736.512 584.708 788.299C509.987 840.086 442.496 875.614 368.377 882.84C293.656 889.464 212.306 867.786 137.585 815.999C62.8632 764.212 -5.22966 682.919 3.80922 610.659C13.4507 539 99.6214 475.772 174.343 408.329C249.064 340.283 312.336 267.421 405.738 236.71C499.14 206.601 623.274 218.042 697.995 286.088Z" fill="#191847" fill-opacity="0.15"/>
<path id="Screen" fill-rule="evenodd" clip-rule="evenodd" d="M303.313 225.394L304.419 231.593C305.754 239.08 300.768 246.232 293.281 247.568L184.083 267.047C176.596 268.382 169.444 263.396 168.109 255.909L167.003 249.71L132.173 255.923C118.961 258.28 110.161 270.901 112.518 284.113L137.771 425.68C137.776 425.662 137.782 425.653 137.79 425.651C138.41 425.543 140.676 426.694 146.42 430.035C147.151 430.46 148.459 430.683 149.327 430.53C150.195 430.377 152.333 431.079 154.078 432.09C155.822 433.101 161.637 434.546 166.999 435.302C172.362 436.058 179.845 437.52 183.628 438.551C194.301 441.461 205.421 450.316 213.841 462.612C219.885 471.439 223.554 474.977 241.423 489.212C245.129 492.164 248.843 494.827 249.677 495.131C251.442 495.773 254.956 492.835 255.915 489.914C257.246 485.862 267.605 476.18 275.068 472.015C281.936 468.18 294.919 469.28 302.821 474.365C303.542 474.829 304.125 475.215 304.765 475.425C307.736 476.399 311.95 473.584 336.887 457.112C347.201 450.3 353.817 447.168 363.729 444.404C367.537 443.342 368.557 443.45 371.025 445.179C375.216 448.115 375.159 449.986 370.85 450.932C367.639 451.637 367.765 451.688 372.123 451.448C376.673 451.198 377.138 451.416 379.91 455.105C382.645 458.746 382.9 459.637 383.443 467.478C384.092 476.834 383.365 480.216 379.623 485.264C377.202 488.53 377.03 488.606 375.459 487.104C374.041 485.748 373.984 485.004 375.038 481.569C375.708 479.386 376.62 477.276 377.065 476.879C378.183 475.883 375.891 469.614 373.583 467.355C372.423 466.221 370.65 465.669 369.023 465.937C364.259 466.72 364.683 472.281 370.042 479.309C371.19 480.813 372.355 483.332 372.632 484.907C373.738 491.189 369.031 490.108 363.927 482.906C361.956 480.125 358.892 476.686 357.118 475.263C355.323 473.823 353.295 470.996 352.545 468.885C351.803 466.8 350.786 465.166 350.285 465.255C348.614 465.549 342.071 470.825 337.856 475.278C333.109 480.291 322.549 489.369 319.008 491.479L316.629 492.897L318.99 495.195C320.288 496.459 322.417 498.287 323.721 499.256C327.181 501.829 327.063 503.575 323.332 504.977C319.799 506.305 319.347 508.928 322.354 510.644C324.505 511.871 325.182 515.952 323.64 518.402C322.698 519.899 322.733 520.736 323.796 522.089C325.508 524.27 326.429 529.214 325.596 531.752C324.071 536.395 312.278 539.309 297.092 538.797C283.166 538.327 277.623 539.844 278.342 543.928C278.64 545.625 286.865 553.507 294.16 559.086C298.865 562.686 307.207 565.629 310.874 564.984C312.423 564.711 316.687 562.408 320.349 559.865C324.394 557.056 331.401 553.506 338.197 550.821C347.747 547.047 349.6 545.984 350.859 543.56C351.671 541.998 353.453 538.986 354.82 536.868C357.108 533.322 357.712 532.96 362.413 532.318C368.079 531.545 371.863 528.91 374.58 523.847C376.429 520.4 380.193 519.303 381.369 521.867C381.804 522.816 381.903 524.239 381.588 525.028C381.273 525.818 380.631 527.615 380.631 527.615L378.582 530.874C378.432 530.598 378.414 530.64 378.229 531.075C378.046 531.504 377.701 532.316 376.906 533.582C375.305 536.132 374.254 538.697 374.57 539.282C375.767 541.497 382.532 539.426 386.722 535.564C390.569 532.017 390.654 531.806 388.608 530.851C386.148 529.703 385.026 525.476 386.886 524.36C387.575 523.947 390.046 524.193 392.378 524.907C396.552 526.187 396.627 526.176 397.283 524.178C397.649 523.062 397.836 521.506 397.697 520.719C397.425 519.172 399.412 515.839 400.747 515.604C401.199 515.525 402.401 516.043 403.42 516.757C405.745 518.385 405.61 521.58 402.945 528.051C401.86 530.685 400.323 535.972 399.529 539.8C397.453 549.81 396.009 550.724 376.758 554.21L361.758 556.926L350.2 565.506C343.843 570.225 336.733 576.135 334.399 578.64C327.583 585.955 319.119 591.39 311.837 593.128C305.592 594.618 305.379 594.587 288.886 589.821C271.754 584.87 262.819 582.66 248.62 579.86C236.732 577.515 232.053 575.493 226.665 570.37C224.029 567.863 220.09 565.055 217.913 564.13C215.736 563.204 212.035 561.189 209.688 559.652C207.341 558.114 202.701 555.738 199.377 554.371C191.686 551.209 189.12 549.582 183.573 544.348C181.1 542.016 178.388 539.606 177.546 538.992C176.704 538.379 174.064 535.991 171.679 533.687C169.294 531.382 166.228 528.812 164.865 527.975C163.502 527.139 160.281 524.202 157.707 521.449L154.182 517.679L201.535 783.132C203.892 796.344 216.513 805.144 229.725 802.787L434.931 766.181C448.143 763.824 456.943 751.203 454.586 737.991L365.569 238.972C363.212 225.76 350.591 216.96 337.379 219.317L303.313 225.394Z" fill="white"/>
<path id="estrella" d="M378 491L379.96 500.296L387.642 494.392L382.962 502.731L392.772 502.982L383.642 506.462L390.99 512.75L381.683 509.743L383.13 519.126L378 511.039L372.87 519.126L374.317 509.743L365.01 512.75L372.358 506.462L363.228 502.982L373.038 502.731L368.358 494.392L376.04 500.296L378 491Z" fill="#EB9B00"/>
<g id="bars/nav bar/small">
<g id="iPhone X/Status Bars/Status Bar (Black)">
<g id="Battery">
<rect id="Border" opacity="0.35" x="330.693" y="245.894" width="21" height="10.3333" rx="2.16667" transform="rotate(-10.8812 330.693 245.894)" stroke="black"/>
<path id="Cap" opacity="0.4" d="M353.387 244.756L354.142 248.684C354.868 248.199 355.233 247.327 355.068 246.469C354.904 245.612 354.241 244.937 353.387 244.756" fill="black"/>
<rect id="Capacity" x="332.45" y="247.083" width="18" height="7.33333" rx="1.33333" transform="rotate(-10.8812 332.45 247.083)" fill="#35F416"/>
</g>
<path id="Wifi" fill-rule="evenodd" clip-rule="evenodd" d="M311.705 253.433C314.155 252.963 316.693 253.451 318.793 254.798C318.952 254.903 319.166 254.86 319.272 254.702L320.302 253.166C320.356 253.086 320.376 252.988 320.357 252.894C320.338 252.799 320.283 252.716 320.202 252.663C314.683 249.092 307.329 250.505 303.527 255.868C303.472 255.948 303.451 256.045 303.469 256.14C303.486 256.235 303.541 256.319 303.621 256.373L305.147 257.417C305.304 257.525 305.519 257.485 305.627 257.329C307.079 255.299 309.255 253.905 311.705 253.433ZM312.512 257.631C313.858 257.372 315.253 257.623 316.424 258.335C316.584 258.437 316.796 258.393 316.902 258.236L317.931 256.701C317.985 256.62 318.005 256.521 317.986 256.426C317.966 256.331 317.91 256.247 317.828 256.194C314.246 253.951 309.54 254.856 307.044 258.267C306.988 258.347 306.967 258.445 306.984 258.541C307.002 258.636 307.057 258.721 307.137 258.776L308.662 259.82C308.818 259.927 309.032 259.889 309.142 259.734C309.966 258.64 311.167 257.89 312.512 257.631ZM315.613 259.963C315.633 260.058 315.613 260.158 315.558 260.238L313.777 262.891C313.725 262.969 313.644 263.023 313.552 263.041C313.46 263.059 313.365 263.039 313.287 262.986L310.65 261.181C310.569 261.127 310.513 261.042 310.497 260.946C310.481 260.85 310.505 260.752 310.563 260.674C311.744 259.21 313.81 258.813 315.45 259.735C315.533 259.785 315.592 259.868 315.613 259.963Z" fill="#1D1D2C" fill-opacity="0.8"/>
<path id="Cellular Connection" fill-rule="evenodd" clip-rule="evenodd" d="M296.183 254.191L295.077 254.404C294.467 254.521 294.067 255.111 294.184 255.722L296.026 265.306C296.144 265.916 296.734 266.316 297.345 266.199L298.451 265.986C299.061 265.869 299.461 265.279 299.344 264.668L297.502 255.084C297.384 254.474 296.794 254.074 296.183 254.191ZM290.413 257.976L291.519 257.763C292.13 257.646 292.72 258.046 292.837 258.657L294.183 265.66C294.301 266.271 293.901 266.861 293.29 266.978L292.184 267.191C291.574 267.308 290.983 266.908 290.866 266.298L289.52 259.294C289.402 258.684 289.802 258.093 290.413 257.976ZM286.854 261.336L285.749 261.548C285.138 261.666 284.738 262.256 284.855 262.866L285.706 267.29C285.823 267.9 286.413 268.3 287.024 268.183L288.13 267.97C288.741 267.853 289.14 267.263 289.023 266.652L288.173 262.229C288.055 261.618 287.465 261.218 286.854 261.336ZM282.119 264.539L281.013 264.752C280.403 264.869 280.003 265.459 280.12 266.07L280.545 268.282C280.663 268.892 281.253 269.292 281.864 269.175L282.969 268.962C283.58 268.845 283.98 268.255 283.863 267.644L283.438 265.432C283.32 264.822 282.73 264.422 282.119 264.539Z" fill="#1D1D2C" fill-opacity="0.8"/>
</g>
</g>
<g id="Characters standing / Woman standing / 4" clip-path="url(#clip1_7:176)">
<g id="Characters standing / Woman standing / 4_2">
<g id="Woman">
<path id="Base" d="M539.252 907.668C540.448 907.668 541.417 908.638 541.417 909.834C541.417 911.03 540.448 912 539.252 912H460.823C459.627 912 458.658 911.03 458.658 909.834C458.658 908.638 459.627 907.668 460.823 907.668H539.252ZM692.261 912H642.942C641.787 912 640.777 911.167 640.777 910.167V909.501C640.777 908.501 641.739 907.668 642.942 907.668H692.261C693.416 907.668 694.426 908.501 694.426 909.501V910.167C694.426 911.167 693.464 912 692.261 912Z" fill="#3CD3D1"/>
<path id="Shoes" d="M539.505 907.683C539.422 907.673 539.338 907.668 539.252 907.668H461.164C461.112 907.404 461.086 907.072 461.093 906.642C461.147 906.306 461.154 905.921 461.257 905.538C461.875 903.238 462.623 901.711 464.812 900.353C467.002 898.995 469.237 897.782 471.565 896.716C480.153 892.678 483.088 892.729 488.735 889.025C491.072 887.477 493.221 885.685 495.227 883.746C496.565 882.454 499.457 880.354 503.903 877.447L539.799 877.447L539.505 907.683ZM692.524 907.682C692.437 907.673 692.349 907.668 692.261 907.668H643.107L646.997 883.114L681.448 878.446L692.524 907.682Z" fill="#1D1D2C"/>
<path id="Legs" d="M590.93 717.593C579.985 753.814 573.151 778.791 561.623 816.605C559.238 823.371 558.358 828.503 558.983 831.999C559.921 837.244 564.547 846.649 566.801 856.904C569.056 867.159 545.937 855.907 526.278 852.13C506.619 848.354 486.368 844.5 486.894 841.554C488.167 834.552 508.137 825.394 509.716 816.605C511.295 807.817 512.491 798.246 512.712 796.671C522.828 736.561 532.32 690.374 537.464 665.252C539.634 654.479 543.803 634.139 558.983 613.319C559.971 612.002 560.771 610.977 561.241 610.343C562.637 608.867 564.199 607.753 565.796 606.916C565.76 606.62 565.725 606.324 565.689 606.029C569.538 603.17 572.148 601.102 587.719 599.916C588.104 599.909 588.536 599.853 588.921 599.847C604.018 599.054 616.834 604.564 626.502 616.45C632.672 625.637 637.507 636.937 641.006 650.35C644.218 662.662 656.455 717.854 677.719 815.926C678.676 818.759 679.603 820.837 680.5 822.161C683.49 826.571 692.314 832.586 698.543 841.037C704.772 849.489 679.077 848.615 659.582 853.164C640.087 857.713 620.02 862.431 619.303 859.526C617.969 854.049 626.802 842.563 629.473 833.714C621.377 811.686 613.425 788.801 605.713 765.152C600.474 749.04 595.555 733.178 590.93 717.593Z" fill="#0A9396"/>
<path id="Shadow T shirt" opacity="0.176986" d="M590.783 717.701C579.89 753.762 573.062 778.706 561.566 816.416C559.181 823.182 558.301 828.314 558.927 831.81C559.865 837.055 564.49 846.46 566.745 856.715C568.999 866.97 545.881 855.718 526.221 851.941C506.562 848.165 486.311 844.311 486.837 841.365C488.11 834.363 508.081 825.205 509.66 816.416C511.239 807.627 512.435 798.057 512.655 796.482C522.771 736.372 532.263 690.185 537.407 665.063C539.577 654.29 543.746 633.95 558.927 613.13C559.914 611.813 560.714 610.788 561.185 610.154C562.551 608.708 564.078 607.611 565.64 606.779C567.426 621.689 569.427 638.626 572.336 651.986C575.28 665.505 579.202 678.319 583.287 691.775C585.696 700.327 588.193 708.971 590.783 717.701Z" fill="#444444"/>
<path id="T shirt" d="M609.388 531.92C612.037 532.688 614.546 533.808 616.721 535.201C626.05 541.174 631.542 552.558 627.279 563.766C626.391 566.101 623.408 568.928 618.332 572.247C617.92 572.293 617.511 572.334 617.106 572.369L615.51 589.615C615.461 590.145 615.413 590.626 615.413 591.155C615.365 593.562 614.932 597.124 612.863 599.723C609.976 603.381 605.694 608.675 587.795 608.868C568.548 609.06 563.929 603.766 560.946 600.012C558.877 597.461 558.348 594.38 558.3 591.877C558.3 591.348 558.252 590.866 558.203 590.337L556.505 572.237C547.48 570.725 546.102 564.743 544.613 560.114C541.579 550.683 548.059 539.594 556.106 534.291C561.837 530.514 568.867 528.928 575.409 530.28C578.415 529.393 581.664 528.895 585.1 528.873H587.843C596.151 528.823 603.73 529.553 609.388 531.92Z" fill="#EB9B00"/>
<path id="Shadow T shirt_2" opacity="0.176986" d="M556.487 572.053C547.646 570.486 546.277 564.56 544.8 559.966C541.766 550.535 548.246 539.446 556.293 534.143C562.079 530.33 569.189 528.75 575.784 530.172C565.633 533.038 558.198 540.317 555.653 548.703C554.883 551.206 554.739 553.901 555.028 556.5L556.487 572.053Z" fill="#444444"/>
<path id="Skin" d="M572.068 521.835C571.942 521.867 571.813 521.899 571.683 521.931C567.461 522.987 567.707 522.908 567.413 522.983C564.294 523.441 561.719 523.019 561.245 522.89C557.298 522.083 553.56 514.15 552.869 503.342C552.785 502.467 552.846 501.603 552.858 500.736L553.603 492.151C553.737 490.23 554.396 488.395 555.47 486.829C555.579 486.644 555.685 486.507 555.792 486.369C556.161 485.913 556.531 485.456 556.894 485.096C558.297 483.65 559.91 482.653 561.548 481.995C565.399 480.721 569.633 480.872 571.961 481.373C572.294 481.444 573.34 481.662 574.814 481.958C576.183 482.392 577.513 482.678 578.902 482.823C579.667 482.925 580.196 483.638 580.142 484.406L578.803 496.664C578.77 496.958 582.395 494.186 586.147 495.178C587.356 495.498 589.025 497.198 591.153 500.278C590.395 502.6 589.998 503.794 589.961 503.86C588.388 506.74 587.234 508.551 586.499 509.293L586.207 517.012L586.702 528.873H585.1C580.522 528.902 576.275 529.777 572.495 531.29L572.068 521.835ZM675.908 850.258L681.451 878.455L647.091 883.289L643.442 856.757C648.618 855.615 654.204 854.309 659.745 853.016C664.933 851.805 670.56 850.979 675.908 850.258ZM512.654 849.299C517.093 850.189 521.784 851.088 526.441 851.982C532.544 853.155 538.98 855.048 544.888 856.794L539.806 877.971H503.406L512.654 849.299ZM554.734 600.434C549.227 604.807 543.641 606.778 537.974 606.349C521.643 605.112 504.837 589.009 487.556 558.039L487.559 558.038L487.558 558.037L470.465 525.331C474.731 521.766 478.67 521.905 482.284 525.747C485.614 530.12 487.531 532.729 488.036 533.575C495.595 546.246 501.683 544.001 509.079 553.313L532.14 573.175L540.57 564.474C539.51 560.456 538.488 556.198 537.507 551.699C534.949 549.971 531.006 546.827 524.577 541.44C523.974 540.934 521.006 540.263 515.673 539.424C507.748 540.463 504.166 538.229 504.928 532.721L538.933 530.493C542.551 530.256 546.039 531.888 548.176 534.818C550.761 538.362 552.615 541.326 553.738 543.712L574.131 574.301L584.739 557.084C587.841 562.656 592.452 565.178 598.806 568.773C604.026 571.725 610.31 572.844 617.66 572.128C603.489 600.184 589.589 614.411 575.96 614.808C568.06 615.038 560.985 610.247 554.734 600.434Z" fill="#ED9474"/>
<path id="Shadow Arm" opacity="0.2" d="M555.036 600.37C549.503 604.787 543.89 606.78 538.196 606.349C521.865 605.112 505.059 589.009 487.778 558.039L487.781 558.038L487.78 558.037L470.687 525.331C474.953 521.766 478.893 521.905 482.506 525.747C485.836 530.12 487.753 532.729 488.258 533.575C495.817 546.246 501.905 544.001 509.301 553.313L532.362 573.175L540.841 564.423C544.974 580.052 549.706 592.035 555.036 600.37Z" fill="#8C2A00"/>
<path id="Shadow" d="M572.254 525.894L577.937 520.33L572.081 521.831L572.254 525.894Z" fill="#482D1F"/>
<path id="Hair" d="M595.781 505.563C595.15 507.853 595.331 509.605 596.323 510.82C601.298 516.913 603.558 517.804 602.314 520.034C600.893 522.581 595.6 523.252 586.434 522.046C580.327 517.915 581.697 510.463 581.705 509.813C581.703 509.808 581.7 509.802 581.698 509.797C582.335 509.696 584.32 509.544 585.964 508.069C587.607 506.64 588.697 504.159 588.056 501.605C587.504 499.154 585.337 497.025 583.03 496.911C581.731 496.869 580.631 497.419 580.48 497.505C578.723 498.492 577.848 499.975 577.848 499.975L577.299 501.014C577.146 500.738 577.001 500.48 576.864 500.244C573.766 496.263 570.665 492.331 567.519 488.348C561.956 486.656 556.728 486.773 555.898 486.232C556.267 485.775 556.637 485.319 557 484.958C558.403 483.512 560.016 482.516 561.654 481.858C565.505 480.583 569.739 480.735 572.067 481.236C572.4 481.307 573.446 481.525 574.921 481.821C575.349 481.899 575.778 481.978 576.302 482.062C577.544 482.246 578.497 482.409 579.07 482.497C586.332 483.488 589.221 482.87 592.728 485.141C593.373 485.573 594.845 486.592 596.024 488.363C599.425 493.523 597.895 499.543 597.479 501.348C597.064 502.962 596.457 504.36 595.781 505.563ZM552.369 497.415C551.903 497.261 551.783 496.664 552.158 496.371C552.635 496.042 553.41 495.652 554.371 495.722C556.34 495.866 558.349 497.277 556.165 497.688C554.769 498.001 553.259 497.67 552.369 497.415ZM561.634 498.553C561.168 498.399 561.047 497.802 561.471 497.515C561.947 497.186 562.722 496.796 563.731 496.871C565.701 497.016 567.703 498.474 565.526 498.837C564.082 499.145 562.572 498.814 561.634 498.553Z" fill="#BB3E03"/>
<path id="Phone" d="M473.59 508.361C474.869 507.524 476.311 507.446 476.814 508.223L500.554 543.301C501.057 544.078 500.495 545.383 499.22 546.268C497.94 547.105 496.498 547.183 495.995 546.405L472.255 511.328C471.701 510.507 472.311 509.197 473.59 508.361Z" fill="#474961"/>
<path id="Eyes" d="M555.499 501.534C555.495 502.358 555.474 503.713 554.926 504.228C554.2 505.011 552.989 502.632 553.511 501.144C553.736 500.493 554.094 500.343 554.476 500.39C555.049 500.46 555.474 500.949 555.499 501.534ZM564.035 502.291C564.079 503.121 564.01 504.47 563.462 504.985C562.736 505.769 561.525 503.389 562.047 501.902C562.272 501.25 562.63 501.1 563.012 501.147C563.585 501.218 564.01 501.706 564.035 502.291Z" fill="#482D1F"/>
<path id="Mouth" d="M560.463 511.648C560.809 511.594 561.656 511.407 561.864 510.899C561.876 510.803 561.941 510.666 561.905 510.565C561.749 510.254 561.111 510.321 560.239 510.311C558.693 510.267 557.469 509.971 557.469 509.971C557.469 509.971 557.734 510.974 557.944 511.242C558.327 512.065 559.92 511.727 560.463 511.648Z" fill="#482D1F"/>
<path id="Nose" d="M556.745 507.21L556.735 507.262C556.671 507.784 556.969 508.312 557.478 508.462C557.572 508.483 557.625 508.494 557.678 508.504C558.179 508.599 558.541 508.648 559.842 508.808C560.106 508.84 560.346 508.653 560.378 508.389C560.411 508.125 560.223 507.885 559.959 507.852C558.681 507.695 558.329 507.647 557.857 507.558C557.808 507.549 557.759 507.539 557.709 507.529C557.72 507.53 557.687 507.47 557.689 507.399L558.881 502.391L558.893 502.322L559.143 499.492C559.167 499.227 558.971 498.993 558.706 498.97C558.442 498.947 558.208 499.142 558.185 499.407L557.937 502.202L556.745 507.21Z" fill="#482D1F"/>
<path id="Shadow_2" d="M585.157 557.234C584.681 550.37 585.818 545.252 588.527 541.857C588.776 541.545 588.725 541.091 588.413 540.842C588.102 540.594 587.648 540.645 587.399 540.956C584.432 544.674 583.218 550.141 583.717 557.334C583.745 557.732 584.09 558.032 584.487 558.004C584.885 557.977 585.185 557.632 585.157 557.234Z" fill="#482D1F"/>
<g id="tel&#195;&#169;fono" clip-path="url(#clip2_7:176)">
<g id="Layer_1">
<g id="Group">
<path id="Vector" d="M487.885 512.283C491.61 512.283 494.63 509.258 494.63 505.527C494.63 501.796 491.61 498.771 487.885 498.771C484.16 498.771 481.14 501.796 481.14 505.527C481.14 509.258 484.16 512.283 487.885 512.283Z" fill="#FF0101"/>
</g>
<g id="Group_2" opacity="0.2">
<g id="Group_3" opacity="0.2">
<path id="Vector_2" opacity="0.2" d="M487.253 504.112C487.168 503.099 486.114 502.614 486.072 502.592C486.009 502.571 485.967 502.571 485.925 502.571C484.702 502.782 484.533 503.479 484.512 503.521C484.512 503.564 484.512 503.606 484.512 503.648C485.967 508.166 488.981 508.989 489.972 509.264C490.056 509.285 490.119 509.306 490.161 509.327C490.182 509.327 490.203 509.348 490.225 509.348C490.267 509.348 490.288 509.348 490.33 509.327C490.351 509.306 491.068 508.968 491.257 507.87C491.257 507.828 491.257 507.765 491.236 507.723C491.215 507.701 490.836 506.984 489.803 506.73C489.74 506.709 489.655 506.73 489.592 506.773C489.255 507.047 488.812 507.343 488.623 507.385C487.316 506.751 486.578 505.506 486.557 505.274C486.536 505.147 486.831 504.683 487.189 504.302C487.231 504.26 487.253 504.176 487.253 504.112Z" fill="#231F20"/>
</g>
</g>
<g id="Group_4">
<g id="Group_5">
<path id="Vector_3" d="M487.253 503.69C487.168 502.677 486.114 502.191 486.072 502.17C486.009 502.149 485.967 502.149 485.925 502.149C484.702 502.36 484.533 503.057 484.512 503.099C484.512 503.141 484.512 503.184 484.512 503.226C485.967 507.744 488.981 508.567 489.972 508.842C490.056 508.863 490.119 508.884 490.161 508.905C490.182 508.905 490.203 508.926 490.225 508.926C490.267 508.926 490.288 508.926 490.33 508.905C490.351 508.884 491.068 508.546 491.257 507.448C491.257 507.406 491.257 507.343 491.236 507.3C491.215 507.279 490.836 506.561 489.803 506.308C489.74 506.287 489.655 506.308 489.592 506.35C489.255 506.625 488.812 506.92 488.623 506.963C487.316 506.329 486.578 505.084 486.557 504.851C486.536 504.725 486.831 504.26 487.189 503.88C487.231 503.838 487.253 503.754 487.253 503.69Z" fill="white"/>
</g>
</g>
</g>
</g>
</g>
</g>
</g>
</g>
<defs>
<filter id="filter0_d_7:176" x="54.874" y="194.231" width="438.199" height="678.381" filterUnits="userSpaceOnUse" color-interpolation-filters="sRGB">
<feFlood flood-opacity="0" result="BackgroundImageFix"/>
<feColorMatrix in="SourceAlpha" type="matrix" values="0 0 0 0 0 0 0 0 0 0 0 0 0 0 0 0 0 0 127 0" result="hardAlpha"/>
<feOffset dx="-10" dy="22"/>
<feGaussianBlur stdDeviation="17"/>
<feColorMatrix type="matrix" values="0 0 0 0 0 0 0 0 0 0 0 0 0 0 0 0 0 0 0.1 0"/>
<feBlend mode="normal" in2="BackgroundImageFix" result="effect1_dropShadow_7:176"/>
<feBlend mode="normal" in="SourceGraphic" in2="effect1_dropShadow_7:176" result="shape"/>
</filter>
<clipPath id="clip0_7:176">
<rect width="786" height="1285" fill="white"/>
</clipPath>
<clipPath id="clip1_7:176">
<rect width="498" height="438" fill="white" transform="translate(335 474)"/>
</clipPath>
<clipPath id="clip2_7:176">
<rect width="13.4898" height="13.5116" fill="white" transform="translate(481.14 498.771)"/>
</clipPath>
</defs>
</svg>
