<?xml version="1.0" encoding="UTF-8" standalone="no"?>
<svg
   width="960"
   height="540"
   viewBox="0 0 960 540"
   fill="none"
   version="1.1"
   id="svg32"
   sodipodi:docname="nosotros-hero.svg"
   inkscape:version="1.1 (c68e22c387, 2021-05-23)"
   xmlns:inkscape="http://www.inkscape.org/namespaces/inkscape"
   xmlns:sodipodi="http://sodipodi.sourceforge.net/DTD/sodipodi-0.dtd"
   xmlns="http://www.w3.org/2000/svg"
   xmlns:svg="http://www.w3.org/2000/svg">
  <sodipodi:namedview
     id="namedview34"
     pagecolor="#ffffff"
     bordercolor="#666666"
     borderopacity="1.0"
     inkscape:pageshadow="2"
     inkscape:pageopacity="0.0"
     inkscape:pagecheckerboard="0"
     showgrid="false"
     inkscape:zoom="1.6074074"
     inkscape:cx="269.06682"
     inkscape:cy="205.6106"
     inkscape:window-width="1366"
     inkscape:window-height="705"
     inkscape:window-x="-8"
     inkscape:window-y="-8"
     inkscape:window-maximized="1"
     inkscape:current-layer="Group" />
  <g
     id="nosotros-hero"
     clip-path="url(#clip0)"
     transform="matrix(0.75428395,0,0,0.75428395,8.021918,13.528128)"
     style="stroke-width:1.32576">
    <g
       id="Group"
       style="stroke-width:1.32576">
      <path
         id="Vector"
         d="m 106.935,392.299 c 78.941,72.293 191.395,56.427 271.746,-28.17 C 459.032,279.531 442.919,147.169 349.736,92.4646 256.553,37.7599 153.802,39.7047 77.991,120.635 2.18008,201.565 27.995,320.006 106.935,392.299 Z"
         fill="#eff3f0"
         style="stroke-width:1.75764;fill:#eff3f0;fill-opacity:0.24444444" />
      <g
         id="Group_2"
         style="stroke-width:1.32576">
        <path
           id="Vector_2"
           d="m 304.079,99 13.079,7.568 v 15.135 L 304.079,129.271 291,121.703 v -15.135 z"
           fill="#297ea6"
           fill-opacity="0.5"
           style="stroke-width:1.75764" />
      </g>
      <g
         id="Group_3"
         style="stroke-width:1.32576"
         transform="translate(-56.909957,-37.939971)">
        <path
           id="Vector_3"
           d="m 289.662,171.833 8.653,11.473 -5.604,13.281 -14.256,1.808 -8.653,-11.474 5.603,-13.281 z"
           fill="#297ea6"
           fill-opacity="0.5"
           style="stroke-width:1.75764" />
      </g>
      <g
         id="Group_4"
         style="stroke-width:1.32576">
        <path
           id="Vector_4"
           d="m 84.7223,171 36.7227,21.262 v 42.523 L 84.7223,256.046 48,234.785 v -42.523 z"
           fill="#297ea6"
           fill-opacity="0.5"
           style="stroke-width:1.75764" />
      </g>
      <g
         id="Group_5"
         style="stroke-width:1.32576"
         transform="translate(-52.786047,0.82478199)">
        <path
           id="Vector_5"
           d="m 249.759,345.893 23.989,25.783 -10.307,33.778 -34.298,7.995 -23.989,-25.782 10.307,-33.778 z"
           fill="#297ea6"
           fill-opacity="0.5"
           style="stroke-width:1.75764" />
      </g>
      <g
         id="Group_6"
         style="stroke-width:1.32576"
         transform="translate(-51.136484,-258.15676)">
        <path
           id="Vector_6"
           d="m 157.935,386.853 5.931,9.892 -5.602,10.079 -11.533,0.188 -5.93,-9.893 5.602,-10.079 z"
           fill="#297ea6"
           fill-opacity="0.5"
           style="stroke-width:1.75764" />
      </g>
      <g
         id="Group_7"
         style="stroke-width:1.32576"
         transform="translate(-58.559521,-19.794768)">
        <path
           id="Vector_7"
           d="m 297.038,298 18.038,10.451 v 20.901 L 297.038,339.802 279,329.352 v -20.901 z"
           fill="#297ea6"
           fill-opacity="0.5"
           style="stroke-width:1.75764" />
      </g>
      <g
         id="Group_8"
         style="stroke-width:1.32576"
         transform="translate(-17.576744,-154.00555)">
        <path
           id="Vector_8"
           d="m 248.466,229.09 10.061,16.62 -9.362,17.06 -19.423,0.44 -10.061,-16.62 9.362,-17.06 z"
           fill="#297ea6"
           fill-opacity="0.5"
           style="stroke-width:1.75764" />
      </g>
      <path
         id="Vector_9"
         d="m 159.966,284.524 16.439,15.973 -5.411,22.898 -21.85,6.925 -16.439,-15.973 5.412,-22.898 z"
         fill="#297ea6"
         fill-opacity="0.5"
         style="stroke-width:1.75764" />
      <path
         id="Star 1"
         d="m 369.20883,133.93992 -0.395,21.793 20.604,7.11 -20.848,6.358 -0.395,21.793 -12.49,-17.863 -20.848,6.359 13.129,-17.399 -12.49,-17.862 20.604,7.11 z"
         fill="#297ea6"
         fill-opacity="0.5"
         style="stroke-width:1.75764" />
      <path
         id="Star 2"
         d="m 187.46992,152.53427 -1.188,29.037 27.249,10.103 -27.984,7.843 -1.188,29.037 -16.106,-24.19 -27.984,7.844 18.029,-22.794 -16.106,-24.19 27.249,10.103 z"
         fill="#297ea6"
         fill-opacity="0.5"
         style="stroke-width:1.75764" />
      <path
         id="Polygon 1"
         d="m 101.596,271.579 19.342,63.817 -64.9383,-15.158 z"
         fill="#297ea6"
         fill-opacity="0.5"
         style="stroke-width:1.75764" />
      <path
         id="Polygon 3"
         d="m 277.64656,171.26439 7.251,23.92599 -24.346,-5.683 z"
         fill="#297ea6"
         fill-opacity="0.5"
         style="stroke-width:1.75764" />
      <path
         id="Polygon 4"
         d="m 248.63461,211.75464 14.503,47.8502 -48.691,-11.3653 z"
         fill="#297ea6"
         fill-opacity="0.5"
         style="stroke-width:1.75764" />
      <path
         id="Polygon 2"
         d="m 139.999,93.8767 26.909,19.1023 -29.997,13.753 z"
         fill="#297ea6"
         fill-opacity="0.5"
         style="stroke-width:1.75764" />
      <path
         id="Star 1_2"
         d="m 119.28844,344.88099 7.64605,11.24786 13.06062,-3.7965 -8.33433,10.74865 7.64605,11.24786 -12.79729,-4.60523 -8.33496,10.74803 0.42557,-13.59478 -12.79791,-4.60523 13.06062,-3.7965 z"
         fill="#297ea6"
         fill-opacity="0.5"
         style="stroke-width:1.75764" />
    </g>
  </g>
  <defs
     id="defs30">
    <clipPath
       id="clip0">
      <rect
         width="960"
         height="540"
         fill="white"
         id="rect27" />
    </clipPath>
  </defs>
</svg>
