<?xml version="1.0" encoding="UTF-8" standalone="no"?>
<svg
   width="151.03508"
   height="97.854057"
   viewBox="0 0 151.03508 97.854057"
   fill="none"
   version="1.1"
   id="svg10"
   sodipodi:docname="sticks.svg"
   inkscape:version="1.1 (c68e22c387, 2021-05-23)"
   xmlns:inkscape="http://www.inkscape.org/namespaces/inkscape"
   xmlns:sodipodi="http://sodipodi.sourceforge.net/DTD/sodipodi-0.dtd"
   xmlns="http://www.w3.org/2000/svg"
   xmlns:svg="http://www.w3.org/2000/svg">
  <sodipodi:namedview
     id="namedview12"
     pagecolor="#ffffff"
     bordercolor="#666666"
     borderopacity="1.0"
     inkscape:pageshadow="2"
     inkscape:pageopacity="0.0"
     inkscape:pagecheckerboard="0"
     showgrid="false"
     inkscape:zoom="0.75347222"
     inkscape:cx="240.2212"
     inkscape:cy="53.751152"
     inkscape:window-width="1366"
     inkscape:window-height="705"
     inkscape:window-x="-8"
     inkscape:window-y="-8"
     inkscape:window-maximized="1"
     inkscape:current-layer="Frame"
     fit-margin-top="0"
     fit-margin-left="0"
     fit-margin-right="0"
     fit-margin-bottom="0" />
  <g
     id="Frame"
     clip-path="url(#clip0_13:8)"
     transform="translate(22.367385,-6.8325528)">
    <g
       id="Sticks texture Image"
       transform="rotate(-56.941561,49.942492,66.771332)"
       style="fill:#bb3e03;fill-opacity:1">
      <path
         id="Vector"
         d="m 99,49 c -1.5709,-0.3493 -3.1149,-0.8105 -4.62,-1.38 -2.39,-1.07 -4.69,-2.36 -7,-3.64 -0.44,-0.25 -0.65,-0.89 -1,-1.35 0.59,-0.16 1.3,-0.62 1.76,-0.43 1.962,0.8077 3.8782,1.7224 5.74,2.74 1.74,0.93 3.39,2 5.07,3.06 z M 0,13 c 1,0.38 2.78,0.73 2.79,1.13 0.07,2.95 1.6,5.3 2.69,7.84 0.19,0.45 -0.16,1.12 -0.25,1.69 C 4.70364,23.3629 4.22216,22.9926 3.8,22.56 2.49,20.74 1.26,18.86 0,17 Z M 78,0 C 77.59,4.1 74.33,6.12 71.68,8.56 71.49,8.74 70.81,8.51 70.43,8.32 70.3599,8.18572 70.3233,8.03648 70.3233,7.885 c 0,-0.15148 0.0366,-0.30072 0.1067,-0.435 0.83,-1 1.72,-2 2.61,-3 1.3333,-1.49333 2.6667,-2.97667 4,-4.45 z M 49,100.3 c 0,-3.16 -0.07,-6.32 0.05,-9.47 0.1889,-0.8684 0.5272,-1.6974 1,-2.45 0.46,0.79 1.25,1.54 1.33,2.37 0.3679,3.4477 0.5515,6.9127 0.55,10.38 -0.1306,3.129 -0.421,6.25 -0.87,9.35 -0.1896,0.728 -0.4826,1.425 -0.87,2.07 -0.39,-0.76 -1.1,-1.51 -1.13,-2.28 -0.13,-3.32 -0.06,-6.65 -0.06,-10 z m 2.68,-82.87 c 0.58,0.44 1,0.71 1.36,1 4.3044,3.874 9.2837,6.9246 14.69,9 2,0.71 3.66,2.16 5.44,3.32 0.0934,0.1143 0.1554,0.2509 0.18,0.3965 0.0245,0.1455 0.0107,0.2949 -0.04,0.4335 -0.2236,0.2304 -0.529,0.3633 -0.85,0.37 -0.3291,0.0093 -0.6554,-0.0629 -0.95,-0.21 -6.67,-3.28 -13.49,-6.32 -19.23,-11.19 -0.5494,-0.5648 -0.9602,-1.2494 -1.2,-2 -0.08,-0.25 0.36,-0.69 0.6,-1.12 z M 48,50.62 c -0.16,0.27 -0.28,0.72 -0.49,0.77 -0.1619,0.0064 -0.323,-0.0267 -0.4694,-0.0964 C 46.8943,51.224 46.7671,51.1198 46.67,50.99 43.51,45.04 39.01,39.78 37.17,33.13 c -0.12,-0.41 0.13,-0.92 0.2,-1.38 0.41,0.13 1.06,0.13 1.21,0.39 3.14,5.82 6.23,11.66 9.32,17.51 0.09,0.315 0.1239,0.6433 0.1,0.97 z m 42.08,29.01 c 0.0724,0.6647 0.0724,1.3353 0,2 -0.2602,1.0159 -0.5739,2.0173 -0.94,3 -0.38,-1 -1.1,-1.9 -1.08,-2.84 0.0556,-4.6055 -0.5643,-9.1943 -1.84,-13.62 -0.2285,-1.1316 -0.2925,-2.2902 -0.19,-3.44 0,-0.35 0.45,-0.69 0.7,-1 0.35,0.31 0.94,0.57 1,0.93 1,5 1.87,10 2.79,14.95 z M 32.32,92.11 c -0.51,-0.6 -1.07,-1 -1,-1.23 1.66,-6.54 3.3667,-13.0633 5.12,-19.57 0.08,-0.3 0.76,-0.43 1.15,-0.64 0.16,0.45 0.53,1 0.43,1.35 -0.55,2.07 -1.32,4.08 -1.81,6.16 -0.83,3.52 -1.45,7.09 -2.29,10.61 -0.4255,1.1555 -0.9613,2.2673 -1.6,3.32 z M 77.78,59.19 c -0.7,0.4 -1.11,0.84 -1.4,0.78 C 70.96,58.7233 65.55,57.4333 60.15,56.1 59.669,55.9689 59.242,55.6888 58.93,55.3 58.7902,55.1254 58.6931,54.9206 58.6462,54.7019 58.5993,54.4832 58.6041,54.2566 58.66,54.04 c 0.1486,-0.1657 0.3361,-0.2918 0.5456,-0.3668 0.2095,-0.0751 0.4344,-0.0968 0.6544,-0.0632 2.5,0.74 4.93,1.66 7.44,2.35 2.84,0.78 5.75,1.34 8.61,2.08 0.6696,0.3025 1.298,0.6889 1.87,1.15 z M 33.54,52.14 c 1.1036,0.6191 2.1628,1.3141 3.17,2.08 3.14,2.71 6.21,5.5 9.28,8.29 0.6225,0.546 1.1586,1.1832 1.59,1.89 0.16,0.28 -0.08,0.87 -0.28,1.25 -0.07,0.12 -0.61,0.07 -0.89,0 C 46.1049,65.5237 45.8266,65.3404 45.59,65.11 41.35,61.39 37.11,57.67 32.91,53.91 32.6384,53.5542 32.4941,53.1176 32.5,52.67 32.49,52.54 33,52.39 33.54,52.14 Z M 55.39,37 v 0.5 c -0.27,0.12 -0.66,0.35 -0.84,0.24 -0.575,-0.3274 -1.1031,-0.7311 -1.57,-1.2 -3.8733,-3.88 -7.7367,-7.77 -11.59,-11.67 -0.381,-0.32 -0.6968,-0.7104 -0.93,-1.15 -0.13,-0.37 -0.07,-1.07 0.17,-1.24 0.2071,-0.089 0.4317,-0.1298 0.6569,-0.1194 0.2252,0.0104 0.4451,0.0717 0.6431,0.1794 0.5548,0.3658 1.0534,0.8104 1.48,1.32 3.7333,4 7.45,8 11.15,12 0.3,0.38 0.57,0.8 0.83,1.14 z m 20.38,48.37 c -0.41,0.11 -0.88,0.41 -1.24,0.3 -0.4728,-0.1512 -0.8676,-0.4814 -1.1,-0.92 -1.7667,-4.1 -3.4833,-8.22 -5.15,-12.36 -0.1,-0.23 0.37,-0.77 0.67,-1.05 0.1,-0.08 0.69,0.15 0.81,0.37 0.72,1.3 1.43,2.62 2,4 1.28,2.85 2.51,5.72 3.75,8.59 0.1172,0.3486 0.2042,0.7065 0.26,1.07 z m -6.39,16.75 c 2.16,0 4.33,0 6.48,0.05 0.25,0 0.56,0.69 0.67,1.11 0,0.13 -0.42,0.6 -0.66,0.6 -4,0 -8,0.05 -12,-0.06 -0.44,0 -0.85,-0.84 -1.28,-1.29 0.3818,-0.265 0.8088,-0.458 1.26,-0.57 1.83,-0.06 3.66,0 5.49,0 z m -2.81,32.11 c 0.49,0.07 0.9,0 1.11,0.18 3,2.57 5.94,5.16 8.85,7.8 0.095,0.196 0.1375,0.413 0.1235,0.631 -0.014,0.217 -0.0841,0.427 -0.2035,0.609 -0.1925,0.108 -0.4094,0.164 -0.63,0.164 -0.2206,0 -0.4375,-0.056 -0.63,-0.164 -2.9533,-2.62 -5.86,-5.287 -8.72,-8 -0.19,-0.16 0.05,-0.79 0.1,-1.22 z m 3.06,-90.44 c -0.3,-0.71 -0.73,-1.27 -0.6,-1.48 0.5632,-1.1698 1.3437,-2.2218 2.3,-3.1 2.12,-1.51 2.87,-4.93 6.3,-4.58 -0.34,2.93 -3.14,3.93 -4.71,5.9 -1.0288,1.1531 -2.1275,2.2418 -3.29,3.26 z m 0.07,71.53 c 2.45,0.78 4.9,1.55 7.33,2.37 0.1223,0.097 0.2164,0.226 0.2726,0.372 0.0562,0.145 0.0726,0.304 0.0474,0.458 -0.0862,0.133 -0.2047,0.243 -0.3446,0.318 -0.1399,0.075 -0.2966,0.114 -0.4554,0.112 -3.43,-0.31 -6.86,-0.63 -10.29,-1.06 -0.55,-0.07 -1,-0.66 -1.55,-1 0.5545,-0.401 1.1687,-0.711 1.82,-0.92 0.9983,-0.081 2.0016,-0.081 3,0 0.04,-0.25 0.11,-0.45 0.17,-0.65 z M 28.09,33.26 c -0.33,1.71 -0.62,3.49 -1,5.25 -0.26,1.11 0.74,2.9 -1.37,3 -0.4711,-0.9567 -0.7011,-2.0141 -0.67,-3.08 0.18,-2.62 0.59,-5.22 1,-7.82 0.05,-0.33 0.53,-0.6 0.81,-0.89 0.33,0.34 0.82,0.63 0.94,1 0.1581,0.8385 0.255,1.6874 0.29,2.54 z m 0.83,31.98 c 0.0154,0.3364 -0.0183,0.6733 -0.1,1 -1.11,2.58 -2.2,5.17 -3.43,7.69 -0.21,0.43 -1.07,0.53 -1.63,0.78 -0.07,-0.59 -0.37,-1.26 -0.18,-1.74 1.13,-2.76 2.34,-5.48 3.61,-8.17 0.12,-0.27 0.82,-0.34 1.25,-0.32 0.17,-0.02 0.32,0.52 0.48,0.76 z M 85.25,105 c 0.2184,-1.445 0.5528,-2.869 1,-4.26 0.38,-0.93 1.63,-2.43 1.92,-2.31 1.53,0.63 0.6,1.85 0.22,2.85 -0.51,1.36 -1.07,2.71 -1.67,4 -0.1062,0.11 -0.2362,0.195 -0.3801,0.247 -0.1439,0.052 -0.2978,0.07 -0.4499,0.053 -0.26,0.02 -0.43,-0.33 -0.64,-0.58 z m -51.17,-1.15 c 0.8593,0.012 1.7159,0.099 2.56,0.26 0.37,0.12 0.61,0.61 0.91,0.94 -0.33,0.3 -0.63,0.79 -1,0.86 -1.605,0.328 -3.2278,0.561 -4.86,0.7 -0.47,0 -1,-0.42 -1.48,-0.65 0.23,-0.42 0.36,-1.08 0.69,-1.2 1.0432,-0.359 2.1047,-0.663 3.18,-0.91 z M 53.22,77.38 c -0.89,0.07 -1.46,0.3 -1.69,0.11 -0.5762,-0.577 -1.1172,-1.1881 -1.62,-1.83 -0.72,-0.77 -1.49,-1.5 -2.24,-2.25 1.79,-1 2.7,0.4 3.69,1.39 0.6887,0.8083 1.3108,1.6711 1.86,2.58 z m 7.66,10.37 C 60.0015,87.5895 59.1875,87.18 58.5351,86.5701 57.8827,85.9602 57.4193,85.1757 57.2,84.31 c 0,-0.15 0,-0.4 0.07,-0.44 0.25,-0.11 0.65,-0.3 0.79,-0.19 1.16,0.87 2.3,1.78 3.4,2.74 0.1003,0.1165 0.1701,0.256 0.2033,0.4061 0.0331,0.1501 0.0286,0.306 -0.0133,0.4539 -0.1,0.23 -0.5,0.32 -0.77,0.47 z M 53,125.61 c 0.63,0.58 1.11,1 1.6,1.5 -0.51,0.29 -1.06,0.86 -1.51,0.79 -0.45,-0.07 -1.12,-0.68 -1.67,-1 z M 24.17,52.21 24.7,51.32 c 0.3352,0.1901 0.6472,0.4183 0.93,0.68 0.06,0.06 -0.3,0.69 -0.4,0.67 -0.3713,-0.1082 -0.7274,-0.2627 -1.06,-0.46 z"
         fill="#1d1d2c"
         style="fill:#bb3e03;fill-opacity:1" />
    </g>
  </g>
  <defs
     id="defs8">
    <clipPath
       id="clip0_13:8">
      <rect
         width="99"
         height="143.63"
         fill="#ffffff"
         id="rect5"
         x="0"
         y="0" />
    </clipPath>
  </defs>
</svg>
