<svg width="150" height="143" viewBox="0 0 150 143" fill="none" xmlns="http://www.w3.org/2000/svg">
<g id="frame" clip-path="url(#clip0_33:4)">
<g id="layer1">
<path id="Vector" d="M89.5771 105.858C88.2166 106.519 86.9256 107.074 86.7336 107.126C86.4892 107.16 85.8067 106.617 84.5459 105.356C83.5478 104.358 82.6551 103.605 82.5855 103.675C82.4984 103.762 82.5005 104.565 82.5726 105.438C82.6623 106.329 82.6294 107.133 82.5075 107.255C82.403 107.359 81.5658 107.776 80.6587 108.193C79.1934 108.853 78.8791 108.887 77.9177 108.552L76.8338 108.165L75.4303 105.717C74.6757 104.37 73.396 102.533 72.6077 101.605C71.0661 99.8196 70.8038 99.6967 70.0199 100.481C69.689 100.811 69.7952 101.371 70.5874 103.765C71.133 105.356 71.4684 106.737 71.3813 106.824C71.2942 106.911 70.4568 107.258 69.5145 107.57L67.822 108.142L67.1979 109.922L66.5913 111.719L64.4793 112.185C63.3274 112.461 62.3325 112.721 62.2629 112.79C62.2106 112.843 62.7024 113.892 63.3518 115.133C64.0012 116.34 65.2486 119.19 66.1278 121.463C67.4466 124.872 67.6933 125.711 67.4854 126.339C67.3468 126.793 67.0859 127.194 66.9114 127.263C66.0741 127.645 59.6679 128.904 59.4927 128.728C59.3877 128.623 58.9136 127.662 58.4393 126.595C56.1555 121.489 54.6287 118.673 53.0342 116.696C52.1406 115.593 51.282 114.491 51.1241 114.228C50.8787 113.878 50.6166 113.825 49.9884 114.033C49.5347 114.172 49.1683 114.328 49.1685 114.398C49.1861 114.45 49.4327 115.254 49.7496 116.198C50.6473 118.873 51.8306 123.923 51.6042 124.149C51.4996 124.254 50.8893 124.619 50.2789 124.949C49.6685 125.28 49.0582 125.645 48.9537 125.749C48.8318 125.871 48.9215 126.797 49.1513 127.828C49.3984 128.842 49.4882 129.768 49.3662 129.89C49.2095 130.046 43.9194 130.714 42.5572 130.745C42.0682 130.744 39.6661 127.157 36.1925 121.21L32.9471 115.7L29.6028 105.736C27.2617 98.7619 26.1341 94.9865 25.8501 93.2393C25.6544 91.8591 25.5639 90.6538 25.6684 90.5493C25.7729 90.4448 27.0657 90.5879 28.5684 90.8712C30.9622 91.3141 31.2944 91.4372 31.4879 91.9791C31.6285 92.3288 31.8214 92.6262 31.9263 92.6614C32.3807 92.7674 34.2122 91.9164 34.194 91.6195C34.1935 91.4448 33.6136 90.0636 32.9285 88.5424C31.8569 86.1818 31.4867 84.8361 30.3721 79.3667L29.0804 72.9537L29.5196 67.2614C29.7908 64.1184 30.253 60.5393 30.564 59.2827C31.1 57.2058 31.2391 56.9616 32.093 56.2478C32.6333 55.8126 33.2437 55.4824 33.4882 55.483C33.9947 55.5018 36.2858 56.7478 36.8287 57.2906C37.0388 57.5008 37.7951 59.5461 38.5346 61.8185L39.8728 65.9786L41.5316 65.8607C42.4396 65.7932 43.2956 65.8478 43.4181 65.9704C43.5407 66.093 44.1736 67.6665 44.8245 69.467C45.4754 71.2676 46.0207 72.7535 46.0557 72.7886C46.0732 72.8061 46.5443 72.6501 47.1201 72.4246C48.1146 72.0604 48.1669 72.0082 48.4266 71.1531C48.6342 70.3852 48.5457 69.9483 47.8257 68.427C46.1397 64.8598 45.9815 64.4577 46.1894 63.8295C46.5185 62.765 47.0242 62.4694 49.2587 62.091C51.0916 61.764 51.4057 61.66 51.3523 61.2582C50.9778 58.3057 50.7246 54.9867 50.8639 54.8474C50.951 54.7603 51.9636 54.6232 53.1161 54.5564C54.3384 54.4548 55.2985 54.2652 55.4376 54.056C55.5942 53.8293 55.3991 52.6587 54.9937 51.243C54.6059 49.8797 54.0935 47.6254 53.8802 46.1927C53.5602 44.0612 53.5757 43.3103 53.9744 42.1761C54.2344 41.3909 54.5642 40.6407 54.7036 40.5014C55.1565 40.0485 58.6293 39.0271 58.8569 39.2548C58.997 39.3949 59.559 40.5839 60.1214 41.9477C61.3164 44.7452 63.195 48.5399 63.4046 48.5405C63.4919 48.5232 63.104 47.125 62.5232 45.4294C61.4847 42.3355 61.4845 42.2656 61.8621 39.7167C62.068 38.3201 62.3267 37.0808 62.4138 36.9937C62.5009 36.9066 63.3915 36.8565 64.387 36.8766C65.9589 36.8807 66.3434 36.9865 67.1834 37.6523C68.1109 38.3708 68.2866 38.7555 70.5015 44.2452C71.7674 47.4621 72.9272 50.1896 73.0323 50.2947C73.1723 50.3998 73.6441 50.5233 74.1158 50.577C74.902 50.6663 75.0066 50.5967 75.5981 49.7251C76.6593 48.1385 77.6176 47.2853 78.142 47.4613C78.3867 47.5318 79.5763 48.2684 80.7136 49.0922C82.9532 50.6699 83.3552 50.7583 83.7367 49.7464C83.8928 49.3101 83.4529 48.069 81.8368 44.502C80.6774 41.9141 79.6406 39.4838 79.4824 39.0817C79.0775 37.8756 76.5349 20.6312 76.1933 16.8754C76.031 14.9364 76.0091 13.2422 76.1485 13.1029C76.2704 12.9809 77.4219 12.5299 78.6783 12.114C80.4931 11.525 81.1914 11.422 81.9255 11.6335L82.8868 11.9329L84.5935 16.7402L86.3001 21.5475L88.3104 22.2338L90.3206 22.9202L91.8801 24.8629L93.4046 26.8055L94.5511 31.1223C95.1685 33.4816 95.7333 35.7186 95.8214 36.0507C95.9452 36.6273 96.0152 36.6624 96.8004 36.4025L97.6555 36.1428L97.6675 34.0645C97.6805 32.3705 97.486 31.4443 96.5007 28.6474C95.5329 25.9029 95.3208 24.9243 95.3341 23.335L95.3639 21.3791L97.3001 20.4585C98.3641 19.9548 99.4633 19.5211 99.7426 19.4869C100.039 19.4702 100.879 19.7867 101.613 20.1729L102.977 20.91L103.295 22.1683C103.665 23.549 103.683 23.5665 105.5 23.7459C106.635 23.8711 106.757 23.819 107.733 22.8435C108.621 21.9552 109.057 21.7293 110.977 21.1754C113.106 20.5523 113.263 20.5352 114.609 21.1151L115.991 21.695L116.396 23.0758C117.559 27.0608 120.888 37.6706 123.053 44.2954C125.042 50.326 125.799 52.3364 126.957 54.4003C127.746 55.817 128.396 57.1984 128.414 57.4604C128.433 57.8622 127.997 58.1929 125.538 59.6709C123.952 60.6273 122.434 61.4791 122.19 61.5484C121.806 61.6871 121.474 61.4592 120.196 60.1809L118.672 58.6575L114.083 60.1649L109.511 61.6898L110.743 65.3607C111.412 67.3883 111.871 69.136 111.749 69.2579C111.627 69.3799 110.668 70.0236 109.604 70.7019C108.558 71.3628 107.565 72.0414 107.408 72.1981C107.216 72.3897 107.307 73.8745 107.61 76.0234C107.877 77.9627 108.039 79.6223 107.934 79.7268C107.83 79.8313 106.59 80.1949 105.159 80.5404C103.065 81.0589 102.419 81.1096 101.58 80.793C100.601 80.4062 100.548 80.3537 100.056 79.2696C99.4764 77.9233 98.1084 75.7541 97.478 75.0888C97.0052 74.616 96.9528 74.6333 93.0805 76.4744C92.9409 76.5439 93.2051 77.4004 93.6618 78.3796C94.1184 79.3588 94.4704 80.3727 94.4535 80.5997C94.4368 80.8966 94.0013 81.332 93.0602 82.0631C92.3106 82.6025 91.7008 83.1773 91.7186 83.2996C91.7015 83.4218 92.4393 85.0654 93.335 86.9714C94.2307 88.8774 94.9688 90.6258 94.9869 90.8879C94.988 91.307 94.7439 91.4461 93.2952 91.8091C92.3353 92.0336 91.4977 92.3108 91.4106 92.3979C91.3235 92.485 91.5354 93.3937 91.8699 94.3901C92.2044 95.4214 92.434 96.3826 92.3646 96.557C92.2777 96.714 91.4405 97.1659 90.4983 97.5127C89.5387 97.877 88.7015 98.2939 88.632 98.4335C88.5626 98.6079 89.2115 99.64 90.2454 100.953C92.2078 103.403 92.6289 104.137 92.2804 104.451C92.1585 104.573 90.9376 105.198 89.5771 105.858Z" fill="#EB9B00"/>
</g>
</g>
<defs>
<clipPath id="clip0_33:4">
<rect width="150" height="143" fill="white"/>
</clipPath>
</defs>
</svg>
