<?xml version="1.0" encoding="UTF-8" standalone="no"?>
<svg
   width="1042"
   height="1020.8827"
   viewBox="0 0 1042 1020.8827"
   fill="none"
   version="1.1"
   id="svg76"
   sodipodi:docname="User Interface _Flatline 1.svg"
   inkscape:version="1.1 (c68e22c387, 2021-05-23)"
   xmlns:inkscape="http://www.inkscape.org/namespaces/inkscape"
   xmlns:sodipodi="http://sodipodi.sourceforge.net/DTD/sodipodi-0.dtd"
   xmlns="http://www.w3.org/2000/svg"
   xmlns:svg="http://www.w3.org/2000/svg">
  <sodipodi:namedview
     id="namedview78"
     pagecolor="#ffffff"
     bordercolor="#666666"
     borderopacity="1.0"
     inkscape:pageshadow="2"
     inkscape:pageopacity="0.0"
     inkscape:pagecheckerboard="0"
     showgrid="false"
     inkscape:zoom="0.9650451"
     inkscape:cx="126.41896"
     inkscape:cy="407.75296"
     inkscape:window-width="1366"
     inkscape:window-height="705"
     inkscape:window-x="-8"
     inkscape:window-y="-8"
     inkscape:window-maximized="1"
     inkscape:current-layer="svg76"
     fit-margin-top="0"
     fit-margin-left="0"
     fit-margin-right="0"
     fit-margin-bottom="0" />
  <g
     id="User Interface _Flatline 1"
     clip-path="url(#clip0_2:2)"
     transform="matrix(3.2857435,0,0,3.2857435,-133.08045,-0.11288919)"
     style="stroke-width:0.304345">
    <g
       id="#63_user_interface"
       style="stroke-width:0.304345">
      <path
         id="Vector_67"
         d="m 92.8015,268.256 c 59.626,62.036 149.906,54.157 217.706,-10.803 67.799,-64.961 60.914,-172.8674 -10.846,-221.2885 C 227.9025,-12.25687 145.9765,-15.2232 81.9573,46.9679 17.9387,109.159 33.1769,206.22 92.8015,268.256 Z"
         fill="#1D1D2C"
         fill-opacity="0.1"
         style="fill:#1d1d2c;fill-opacity:0.58;stroke-width:0.304345" />
      <path
         id="Vector"
         d="M 327.104,57.0141 H 137.654 V 240.902 h 189.45 z"
         fill="#ffffff"
         style="stroke-width:0.092626" />
      <path
         id="Vector_2"
         d="M 327.104,57.0141 V 240.912 H 137.654 V 57.0141 Z m 0,-0.9236 h -189.45 c -0.245,0 -0.48,0.0973 -0.653,0.2705 -0.173,0.1732 -0.27,0.4082 -0.27,0.6531 V 240.912 c 0,0.245 0.097,0.48 0.27,0.653 0.173,0.173 0.408,0.27 0.653,0.27 h 189.45 c 0.121,0 0.241,-0.023 0.354,-0.07 0.112,-0.046 0.213,-0.114 0.299,-0.2 0.086,-0.086 0.154,-0.188 0.2,-0.3 0.047,-0.112 0.071,-0.232 0.071,-0.353 V 57.0141 c 0,-0.1212 -0.024,-0.2414 -0.071,-0.3534 -0.046,-0.1121 -0.114,-0.2139 -0.2,-0.2997 -0.086,-0.0857 -0.187,-0.1538 -0.299,-0.2002 -0.113,-0.0464 -0.233,-0.0703 -0.354,-0.0703 z"
         fill="#231f20"
         style="stroke-width:0.092626;fill:#0a9396;fill-opacity:1" />
      <path
         id="Vector_3"
         d="m 235.764,79.8719 h -43.127 c -0.611,0 -1.107,0.4954 -1.107,1.1064 v 1.1063 c 0,0.6111 0.496,1.1064 1.107,1.1064 h 43.127 c 0.611,0 1.107,-0.4953 1.107,-1.1064 v -1.1063 c 0,-0.611 -0.496,-1.1064 -1.107,-1.1064 z"
         fill="#d1d3d4"
         style="stroke-width:0.092626" />
      <path
         id="Vector_4"
         d="m 209.922,95.5842 h -16.97 v 19.1128 h 16.97 z"
         fill="#d1d3d4"
         style="stroke-width:0.092626" />
      <path
         id="Vector_5"
         d="m 301.516,97.0051 h -81.119 c -1.379,0 -2.497,1.1179 -2.497,2.4969 v 0.0102 c 0,1.3788 1.118,2.4968 2.497,2.4968 h 81.119 c 1.379,0 2.497,-1.118 2.497,-2.4968 V 99.502 c 0,-1.379 -1.118,-2.4969 -2.497,-2.4969 z"
         fill="#d1d3d4"
         style="stroke-width:0.092626" />
      <path
         id="Vector_6"
         d="m 275.847,106.566 h -55.45 c -1.379,0 -2.497,1.118 -2.497,2.497 v 0.011 c 0,1.379 1.118,2.496 2.497,2.496 h 55.45 c 1.379,0 2.496,-1.117 2.496,-2.496 v -0.011 c 0,-1.379 -1.117,-2.497 -2.496,-2.497 z"
         fill="#d1d3d4"
         style="stroke-width:0.092626" />
      <path
         id="Vector_7"
         d="m 209.922,175.18 h -16.97 v 19.113 h 16.97 z"
         fill="#d1d3d4"
         style="stroke-width:0.092626" />
      <path
         id="Vector_8"
         d="m 301.516,176.612 h -81.119 c -1.379,0 -2.497,1.117 -2.497,2.496 v 0.011 c 0,1.379 1.118,2.497 2.497,2.497 h 81.119 c 1.379,0 2.497,-1.118 2.497,-2.497 v -0.011 c 0,-1.379 -1.118,-2.496 -2.497,-2.496 z"
         fill="#d1d3d4"
         style="stroke-width:0.092626" />
      <path
         id="Vector_9"
         d="m 275.847,186.163 h -55.45 c -1.379,0 -2.497,1.118 -2.497,2.497 v 0.01 c 0,1.379 1.118,2.497 2.497,2.497 h 55.45 c 1.379,0 2.496,-1.118 2.496,-2.497 v -0.01 c 0,-1.379 -1.117,-2.497 -2.496,-2.497 z"
         fill="#d1d3d4"
         style="stroke-width:0.092626" />
      <path
         id="Vector_10"
         d="m 209.922,204.829 h -16.97 v 19.112 h 16.97 z"
         fill="#d1d3d4"
         style="stroke-width:0.092626" />
      <path
         id="Vector_11"
         d="m 301.516,206.26 h -81.119 c -1.379,0 -2.497,1.118 -2.497,2.497 v 0.01 c 0,1.379 1.118,2.497 2.497,2.497 h 81.119 c 1.379,0 2.497,-1.118 2.497,-2.497 v -0.01 c 0,-1.379 -1.118,-2.497 -2.497,-2.497 z"
         fill="#d1d3d4"
         style="stroke-width:0.092626" />
      <path
         id="Vector_12"
         d="m 275.847,215.811 h -55.45 c -1.379,0 -2.497,1.118 -2.497,2.497 v 0.01 c 0,1.379 1.118,2.497 2.497,2.497 h 55.45 c 1.379,0 2.496,-1.118 2.496,-2.497 v -0.01 c 0,-1.379 -1.117,-2.497 -2.496,-2.497 z"
         fill="#d1d3d4"
         style="stroke-width:0.092626" />
      <path
         id="Vector_13"
         d="m 145.307,65.4894 c 1.122,0 2.03,-0.9089 2.03,-2.03 0,-1.1211 -0.908,-2.03 -2.03,-2.03 -1.121,0 -2.03,0.9089 -2.03,2.03 0,1.1211 0.909,2.03 2.03,2.03 z"
         fill="#eb9b00"
         style="stroke-width:0.092626;fill:#eb0800;fill-opacity:1" />
      <path
         id="Vector_14"
         d="m 152.412,65.4894 c 1.122,0 2.03,-0.9089 2.03,-2.03 0,-1.1211 -0.908,-2.03 -2.03,-2.03 -1.121,0 -2.03,0.9089 -2.03,2.03 0,1.1211 0.909,2.03 2.03,2.03 z"
         fill="#d1d3d4"
         style="stroke-width:0.092626;fill:#edc10f;fill-opacity:1" />
      <path
         id="Vector_15"
         d="m 159.517,65.4894 c 1.122,0 2.03,-0.9089 2.03,-2.03 0,-1.1211 -0.908,-2.03 -2.03,-2.03 -1.121,0 -2.03,0.9089 -2.03,2.03 0,1.1211 0.909,2.03 2.03,2.03 z"
         fill="#d1d3d4"
         style="stroke-width:0.092626;fill:#1c8c12;fill-opacity:1" />
      <path
         id="Vector_16"
         d="m 178.457,69.9148 h -1.015 V 240.912 h 1.015 z"
         fill="#d1d3d4"
         style="stroke-width:0.092626" />
      <path
         id="Vector_17"
         d="m 327.104,69.4073 h -189.45 v 1.015 h 189.45 z"
         fill="#d1d3d4"
         style="stroke-width:0.092626" />
      <path
         id="Vector_18"
         d="M 353.677,262.257 H 68.1268 c -0.1346,0 -0.2637,-0.053 -0.3588,-0.148 -0.0952,-0.096 -0.1487,-0.225 -0.1487,-0.359 0,-0.135 0.0535,-0.264 0.1487,-0.359 0.0951,-0.095 0.2242,-0.149 0.3588,-0.149 H 353.677 c 0.134,0 0.263,0.054 0.359,0.149 0.095,0.095 0.148,0.224 0.148,0.359 -0.002,0.134 -0.057,0.261 -0.151,0.356 -0.095,0.094 -0.222,0.149 -0.356,0.151 z"
         fill="#d1d3d4"
         style="stroke-width:0.092626" />
      <path
         id="Vector_19"
         d="m 322.658,208.929 c 0.133,-1.875 -0.264,-3.75 -1.147,-5.41 -0.872,-1.099 -1.685,-2.245 -2.436,-3.43 -1.015,-2.203 -0.304,-4.781 -0.548,-7.197 -0.208,-2.025 -1.099,-3.918 -2.527,-5.369 -1.269,-1.279 -2.893,-2.152 -4.06,-3.482 -2.03,-2.192 -2.548,-5.257 -3.664,-7.988 -1.601,-3.848 -4.366,-7.099 -7.907,-9.297 2.152,4.334 -2.761,9.845 -0.538,14.149 0.71,1.37 2.03,2.365 2.578,3.806 1.249,3.492 -2.913,7.278 -1.583,10.729 0.659,1.736 2.517,2.73 3.38,4.375 1.157,2.212 0.243,4.892 0.345,7.389 0.122,3.441 2.223,6.516 4.709,8.901 1.553,1.482 3.279,2.771 4.954,4.111 2.03,1.604 2.842,3.289 4.608,0.711 2.413,-3.544 3.746,-7.712 3.836,-11.998 z"
         fill="#231f20"
         style="stroke-width:0.092626;fill:#1c8c12;fill-opacity:1" />
      <path
         id="Vector_20"
         d="m 324.891,210.898 c -0.639,-2.659 -1.096,-5.552 0,-8.059 1.228,-2.842 4.294,-4.851 4.649,-7.927 0.233,-2.03 -0.792,-4.06 -0.386,-6.09 0.406,-2.03 2.03,-3.339 3.37,-4.811 3.081,-3.39 4.914,-7.73 5.197,-12.302 2.07,2.451 3.741,5.211 4.953,8.181 1.015,3.045 1.076,6.587 -0.721,9.237 -0.514,0.612 -0.938,1.296 -1.258,2.03 -0.599,1.959 1.076,3.786 1.939,5.643 0.537,1.072 0.768,2.272 0.666,3.467 -0.102,1.195 -0.533,2.338 -1.245,3.303 -1.756,2.192 -5.156,3.045 -6.019,5.725 -0.215,1 -0.317,2.021 -0.304,3.045 -0.183,1.767 -0.891,3.44 -2.032,4.802 -1.142,1.362 -2.665,2.351 -4.373,2.841 -2.081,0.497 -2.03,-0.325 -2.416,-2.03 -0.548,-2.426 -1.451,-4.7 -2.02,-7.055 z"
         fill="#231f20"
         style="stroke-width:0.092626;fill:#1c8c12;fill-opacity:1" />
      <path
         id="Vector_21"
         d="m 318.263,191.745 c -1.471,-5.075 -2.03,-10.464 -3.623,-15.55 -1.33,-3.979 -2.948,-7.857 -4.842,-11.601 l 6.344,2.68 c 2.03,0.852 4.233,1.867 5.197,3.857 1.675,3.461 -1.33,7.896 0.426,11.317 0.76,1.11 1.598,2.165 2.507,3.157 1.868,2.628 1.584,6.232 0.558,9.287 -0.436,1.309 -2.364,8.12 -4.06,6.222 -0.69,-0.762 -0.751,-3.573 -1.015,-4.608 -0.487,-1.594 -1.045,-3.167 -1.492,-4.761 z"
         fill="#231f20"
         style="stroke-width:0.092626;fill:#1c8c12;fill-opacity:1" />
      <path
         id="Vector_22"
         d="m 321.755,259.72 c -1.269,-8.364 -5.227,-37.839 -5.268,-38.134 l 1.015,-0.142 c 0,0.295 3.999,29.77 5.268,38.124 z"
         fill="#231f20"
         style="stroke-width:0.092626;fill:#bb3e03;fill-opacity:1" />
      <path
         id="Vector_23"
         d="m 323.186,267.616 h -1.015 c 0.071,-9.926 4.202,-47.857 6.587,-50.465 l 0.752,0.69 c -1.584,1.725 -6.233,36.174 -6.324,49.775 z"
         fill="#231f20"
         style="stroke-width:0.092626;fill:#bb3e03;fill-opacity:1" />
      <path
         id="Vector_24"
         d="m 325.338,265.729 -1.015,-0.051 c 0.944,-21.406 -3.593,-66.381 -3.644,-66.828 l 1.015,-0.101 c 0.061,0.446 4.588,45.492 3.644,66.98 z"
         fill="#231f20"
         style="stroke-width:0.092626;fill:#bb3e03;fill-opacity:1" />
      <path
         id="Vector_25"
         d="m 310.864,235.756 h 23.619 l -1.654,26.836 c -0.285,4.639 -3.725,8.242 -7.867,8.242 h -4.577 c -4.141,0 -7.582,-3.603 -7.867,-8.242 z"
         fill="#ffffff"
         style="stroke-width:0.092626" />
      <path
         id="Vector_26"
         d="m 324.962,271.362 h -4.577 c -4.405,0 -8.12,-3.847 -8.394,-8.739 l -1.655,-26.837 c -0.005,-0.071 0.005,-0.142 0.03,-0.208 0.024,-0.067 0.063,-0.127 0.112,-0.178 0.051,-0.051 0.11,-0.092 0.177,-0.12 0.066,-0.028 0.137,-0.042 0.209,-0.042 h 23.619 c 0.072,0 0.143,0.014 0.209,0.042 0.067,0.028 0.127,0.069 0.177,0.12 0.05,0.051 0.088,0.111 0.113,0.178 0.024,0.066 0.034,0.137 0.029,0.208 l -1.655,26.837 c -0.304,4.892 -3.989,8.739 -8.394,8.739 z m -13.54,-35.079 1.614,26.279 c 0.264,4.344 3.502,7.744 7.349,7.744 h 4.577 c 3.847,0 7.105,-3.4 7.349,-7.744 l 1.624,-26.279 z"
         fill="#231f20"
         style="stroke-width:0.092626" />
      <path
         id="Vector_27"
         d="m 124.845,254.015 c -0.142,0.894 0.751,11.318 0.751,11.318 0,0 12.749,2.192 12.82,1.35 0.071,-0.843 3.857,-4.73 3.857,-4.73 l -5.136,-2.396 -0.457,-12.586 z"
         fill="#ffffff"
         style="stroke-width:0.092626" />
      <path
         id="Vector_28"
         d="m 137.39,267.312 c -3.982,-0.268 -7.944,-0.776 -11.865,-1.523 -0.102,-0.019 -0.195,-0.071 -0.264,-0.148 -0.07,-0.077 -0.112,-0.174 -0.122,-0.278 -0.091,-1.015 -0.903,-10.495 -0.751,-11.419 0.01,-0.066 0.034,-0.13 0.071,-0.186 0.036,-0.056 0.085,-0.103 0.142,-0.138 l 11.845,-7.044 c 0.07,-0.041 0.149,-0.062 0.229,-0.062 0.08,0 0.159,0.021 0.228,0.062 0.07,0.041 0.129,0.098 0.171,0.167 0.043,0.069 0.068,0.148 0.073,0.228 l 0.436,12.292 4.893,2.284 c 0.067,0.03 0.125,0.076 0.169,0.135 0.045,0.058 0.074,0.127 0.084,0.2 0.013,0.072 0.009,0.147 -0.012,0.217 -0.021,0.071 -0.059,0.135 -0.109,0.189 -1.716,1.766 -3.634,3.968 -3.736,4.456 -0.008,0.076 -0.032,0.15 -0.07,0.216 -0.039,0.067 -0.091,0.124 -0.153,0.169 -0.397,0.168 -0.83,0.231 -1.259,0.183 z m -11.357,-2.375 c 5.237,0.883 10.921,1.634 11.987,1.451 0.975,-1.569 2.141,-3.011 3.471,-4.293 l -4.557,-2.121 c -0.077,-0.038 -0.143,-0.095 -0.189,-0.167 -0.047,-0.071 -0.073,-0.154 -0.075,-0.239 l -0.427,-11.795 -10.951,6.547 c -0.021,1.218 0.416,6.861 0.741,10.617 z"
         fill="#231f20"
         style="stroke-width:0.092626" />
      <path
         id="Vector_29"
         d="m 86.2141,254.919 -1.8574,12.87 h 8.4448 l 4.943,-13.774 z"
         fill="#ffffff"
         style="stroke-width:0.092626" />
      <path
         id="Vector_30"
         d="m 92.8015,268.256 h -8.4448 c -0.0673,-10e-4 -0.1335,-0.016 -0.1947,-0.044 -0.0611,-0.028 -0.1158,-0.068 -0.1606,-0.118 -0.041,-0.051 -0.0712,-0.11 -0.0886,-0.173 -0.0175,-0.062 -0.0219,-0.128 -0.0129,-0.193 l 1.8575,-12.88 c 0.0153,-0.103 0.0646,-0.198 0.14,-0.27 0.0754,-0.071 0.1726,-0.116 0.2761,-0.126 l 11.5304,-0.903 c 0.0775,-0.006 0.1553,0.008 0.2262,0.039 0.0709,0.032 0.1327,0.081 0.1798,0.143 0.0478,0.061 0.0794,0.133 0.0919,0.209 0.0124,0.077 0.0052,0.155 -0.0208,0.228 l -4.9431,13.783 c -0.0331,0.09 -0.0926,0.167 -0.1706,0.221 -0.078,0.054 -0.1707,0.084 -0.2658,0.084 z m -7.9069,-0.924 h 7.5821 l 4.5878,-12.799 -10.4444,0.812 z"
         fill="#231f20"
         style="stroke-width:0.092626" />
      <path
         id="Vector_31"
         d="m 114.441,80.2881 c -0.286,-0.0365 -0.574,-0.0535 -0.862,-0.0508 -1.362,0.2957 -2.689,0.7346 -3.959,1.3094 -2.03,-1.421 -4.842,-1.1571 -7.186,-0.3146 -5.8263,2.03 -9.0235,7.1049 -11.896,12.2713 -1.289,2.3243 -3.1668,4.7908 -4.1209,7.2266 -1.4514,3.674 -1.6138,6.831 -4.1818,10.15 -2.4258,3.157 -5.4201,5.826 -8.0286,8.841 -3.5322,4.06 -6.3945,8.962 -7.105,14.321 -1.5428,11.47 9.409,22.747 20.5436,21.904 11.1345,-0.842 23.1927,-3.715 29.9937,-12.596 7.511,-9.795 8.251,-24.736 7.105,-36.54 -0.63,-6.181 -0.467,-12.7788 -3.117,-18.5338 -1.012,-2.4379 -2.381,-4.7125 -4.06,-6.7498 -0.871,-0.756 -1.973,-1.1928 -3.126,-1.2383 z"
         fill="#ffffff"
         style="stroke-width:0.092626;fill:#eb9b00;fill-opacity:1" />
      <path
         id="Vector_32"
         d="m 86.5186,156.484 c -2.6875,-0.088 -5.3301,-0.714 -7.771,-1.842 -2.441,-1.128 -4.6305,-2.735 -6.439,-4.725 -2.0593,-2.067 -3.631,-4.567 -4.6004,-7.319 -0.9693,-2.751 -1.3118,-5.685 -1.0024,-8.586 0.6598,-4.882 3.045,-9.785 7.2268,-14.565 1.015,-1.239 2.2229,-2.436 3.3394,-3.603 1.6509,-1.652 3.2096,-3.394 4.669,-5.218 1.3882,-1.964 2.3779,-4.181 2.913,-6.526 0.335,-1.117 0.6699,-2.274 1.147,-3.481 0.7324,-1.6774 1.6157,-3.2843 2.639,-4.8014 0.5481,-0.8628 1.015,-1.6748 1.5123,-2.4868 2.8725,-5.146 6.1611,-10.3428 12.1797,-12.4845 1.685,-0.609 4.852,-1.3601 7.369,0.2132 1.253,-0.5486 2.55,-0.99 3.878,-1.3195 0.274,0 0.598,0 0.913,0 1.247,0.1018 2.427,0.6078 3.36,1.4413 1.747,2.0561 3.152,4.3797 4.161,6.8817 2.101,4.5472 2.467,9.612 2.822,14.514 0.101,1.401 0.203,2.792 0.345,4.172 0.924,9.064 1.228,25.913 -7.105,36.834 -5.735,7.491 -15.661,11.663 -30.3282,12.779 -0.4568,0.102 -0.8323,0.122 -1.2282,0.122 z M 106.128,80.9986 c -1.2,0.0236 -2.387,0.2501 -3.511,0.6699 -5.6845,2.03 -8.8716,7.105 -11.6527,12.0683 -0.4669,0.8323 -1.015,1.6951 -1.5326,2.5274 -0.9904,1.4679 -1.8497,3.02 -2.568,4.6388 -0.4669,1.177 -0.7917,2.304 -1.1165,3.4 -0.5699,2.487 -1.633,4.834 -3.1262,6.902 -1.4717,1.86 -3.051,3.633 -4.7299,5.308 -1.1063,1.147 -2.2533,2.335 -3.3089,3.563 -4.06,4.639 -6.3742,9.379 -7.0035,14.078 -0.2934,2.764 0.0357,5.559 0.963,8.18 0.9274,2.62 2.4295,5 4.3962,6.964 4.06,4.293 9.5613,6.628 14.6972,6.232 14.3929,-1.086 24.0959,-5.146 29.6579,-12.403 8.181,-10.678 7.867,-27.253 6.963,-36.185 -0.142,-1.38 -0.243,-2.791 -0.345,-4.192 -0.355,-4.8212 -0.71,-9.8049 -2.74,-14.21 -0.973,-2.4002 -2.315,-4.6332 -3.979,-6.6178 -0.783,-0.6817 -1.766,-1.0913 -2.801,-1.1672 v 0 c -0.285,0 -0.569,0 -0.812,0 -1.223,0.3067 -2.424,0.6967 -3.594,1.1672 -0.075,0.0834 -0.179,0.1365 -0.291,0.1495 -0.112,0.0131 -0.225,-0.0148 -0.318,-0.0784 v 0 c -0.953,-0.6597 -2.088,-1.0072 -3.248,-0.9947 z"
         fill="#231f20"
         style="stroke-width:0.092626" />
      <path
         id="Vector_33"
         d="m 130.996,159.184 -8.597,-45.107 -24.7357,1.97 0.0812,38.671 z"
         fill="#ffffff"
         style="stroke-width:0.092626;fill:#381c1c;fill-opacity:1" />
      <path
         id="Vector_34"
         d="m 130.996,159.641 h -0.061 l -33.2514,-4.466 c -0.1121,-0.013 -0.2157,-0.066 -0.2906,-0.151 -0.075,-0.084 -0.1161,-0.193 -0.1154,-0.306 l -0.0812,-38.671 c 0.0021,-0.116 0.0468,-0.226 0.1255,-0.311 0.0787,-0.084 0.1859,-0.136 0.3008,-0.146 l 24.7353,-1.969 c 0.115,-0.01 0.229,0.023 0.321,0.092 0.092,0.07 0.155,0.17 0.177,0.283 l 8.587,45.097 c 0.014,0.071 0.011,0.145 -0.008,0.216 -0.019,0.071 -0.055,0.136 -0.104,0.19 -0.089,0.089 -0.209,0.141 -0.335,0.142 z m -32.7846,-5.329 32.2056,4.324 -8.394,-44.061 -23.9029,1.908 z"
         fill="#231f20"
         style="stroke-width:0.092626" />
      <path
         id="Vector_35"
         d="m 97.7445,154.718 c 0,0 -10.3834,73.293 -13.3878,100.85 l 13.3066,2.091 c 0,0 9.0737,-38.306 17.6607,-63.102 l 8.252,63.102 14.84,-1.918 -4.598,-101.023 z"
         fill="#231f20"
         style="stroke-width:0.092626;fill:#bb3e03;fill-opacity:1" />
      <path
         id="Vector_36"
         d="m 76.8558,137.169 15.1032,4.385 -2.2228,37.656 17.2548,-0.508 -3.461,-60.341 14.068,-0.559 c 0,0.538 4.476,49.664 5.927,61.378 l 16.819,-5.136 -6.892,-34.764 9.44,-4.831 c 0,0 -5.867,-23.244 -25.314,-22.117 -17.9558,1.015 -11.683,1.015 -11.328,1.015 -0.355,0 -14.2098,0.061 -20.5941,8.597 -3.5888,4.667 -6.5475,9.786 -8.8001,15.225 z"
         fill="#eb9b00"
         style="stroke-width:0.092626;fill:#1d1d2c;fill-opacity:1" />
      <path
         id="Vector_37"
         d="m 115.568,109.825 1.614,8.739 c 0,0 0.091,5.075 -5.532,4.659 -1.664,-0.141 -3.276,-0.65 -4.719,-1.491 -1.444,-0.841 -2.681,-1.993 -3.624,-3.371 -0.603,-3.607 -1.198,-7.214 -1.787,-10.82 -0.659,-3.999 -1.7556,-8.2013 -1.9688,-12.2512 4.2228,1.35 9.4298,-3.9788 10.7588,-7.4399 0.333,1.0718 0.383,2.2113 0.147,3.3083 -0.237,1.097 -0.752,2.1145 -1.497,2.9542 1.177,-0.4165 2.241,-1.101 3.108,-1.9994 0.866,-0.8984 1.512,-1.9861 1.886,-3.1771 1.243,0.9573 2.411,2.0093 3.492,3.1465 0.925,1.3182 1.638,2.774 2.111,4.3138 0.822,2.6999 1.522,6.7498 0.152,9.3688 -1.776,3.41 -4.141,4.06 -4.141,4.06 z"
         fill="#ffffff"
         style="stroke-width:0.092626" />
      <path
         id="Vector_38"
         d="m 112.3,123.71 h -0.691 c -1.737,-0.14 -3.421,-0.669 -4.927,-1.548 -1.505,-0.878 -2.794,-2.084 -3.771,-3.527 -0.031,-0.053 -0.052,-0.112 -0.061,-0.173 l -1.786,-10.84 c -0.214,-1.269 -0.457,-2.548 -0.711,-3.837 -0.6183,-2.792 -1.0389,-5.6237 -1.2586,-8.4749 -0.0041,-0.0744 0.0104,-0.1487 0.0423,-0.2161 0.032,-0.0674 0.0802,-0.1257 0.1404,-0.1696 0.0581,-0.0454 0.126,-0.0765 0.1984,-0.0906 0.0723,-0.0141 0.1469,-0.0109 0.2178,0.0094 3.8977,1.2586 8.9317,-3.8976 10.1497,-7.1659 0.034,-0.0885 0.094,-0.1647 0.172,-0.2185 0.078,-0.0538 0.17,-0.0825 0.265,-0.0825 0.094,0 0.187,0.0287 0.265,0.0825 0.078,0.0538 0.138,0.13 0.171,0.2185 0.548,1.7378 0.395,3.621 -0.426,5.2475 1.52,-0.9629 2.649,-2.4339 3.187,-4.1513 0.026,-0.0847 0.075,-0.1607 0.141,-0.2197 0.066,-0.059 0.147,-0.0989 0.235,-0.1152 0.598,-0.1015 3.907,3.3089 3.938,3.3393 0.957,1.3596 1.691,2.864 2.172,4.4559 0.578,1.8879 1.746,6.6072 0.132,9.7132 -0.838,1.806 -2.272,3.268 -4.06,4.142 0.314,1.695 1.543,8.363 1.543,8.363 0.012,1.454 -0.549,2.855 -1.563,3.898 -1.016,0.917 -2.348,1.404 -3.715,1.36 z m -8.547,-5.522 c 0.907,1.295 2.087,2.375 3.457,3.164 1.369,0.789 2.896,1.268 4.47,1.404 0.661,0.108 1.337,0.073 1.983,-0.102 0.646,-0.175 1.247,-0.487 1.763,-0.913 0.811,-0.845 1.271,-1.966 1.289,-3.137 0,0 -1.584,-8.576 -1.604,-8.658 -0.022,-0.115 0,-0.234 0.062,-0.334 0.062,-0.1 0.16,-0.172 0.273,-0.204 0,0 2.213,-0.669 3.857,-3.826 1.452,-2.802 0.345,-7.237 -0.193,-9.0133 -0.448,-1.4936 -1.134,-2.9054 -2.03,-4.1818 -0.203,-0.2639 -2.03,-1.9691 -2.882,-2.6898 -0.449,1.1287 -1.134,2.1482 -2.01,2.9903 -0.875,0.842 -1.92,1.4871 -3.065,1.8919 -0.097,0.0367 -0.204,0.0385 -0.302,0.0052 -0.098,-0.0333 -0.182,-0.0997 -0.236,-0.1879 -0.065,-0.0808 -0.099,-0.181 -0.099,-0.2842 0,-0.1032 0.034,-0.2034 0.099,-0.2842 0.545,-0.6107 0.961,-1.3261 1.221,-2.1027 0.26,-0.7766 0.359,-1.5979 0.291,-2.414 -1.857,3.248 -6.181,7.2877 -10.069,6.6076 0.246,2.5928 0.646,5.1689 1.198,7.7139 0.254,1.299 0.507,2.598 0.721,3.867 z"
         fill="#231f20"
         style="stroke-width:0.092626" />
      <path
         id="Vector_39"
         d="m 101.876,101.299 c -0.262,-0.623 -0.722,-1.14 -1.31,-1.4722 -0.559,-0.2889 -1.1629,-0.4811 -1.7862,-0.5683 -0.3342,-0.0745 -0.6808,-0.0745 -1.015,0 -0.233,0.0715 -0.4477,0.1927 -0.6293,0.3552 -0.4696,0.3324 -0.8045,0.8223 -0.944,1.3803 -0.0623,0.457 -0.0064,0.921 0.1624,1.35 0.1329,0.485 0.3309,0.949 0.5887,1.38 0.27,0.422 0.6208,0.787 1.0322,1.073 0.4114,0.286 0.8754,0.487 1.3651,0.593 0.4896,0.105 0.9951,0.113 1.4881,0.022 0.493,-0.09 0.963,-0.278 1.382,-0.551"
         fill="#ffffff"
         style="stroke-width:0.092626" />
      <path
         id="Vector_40"
         d="m 100.12,105.866 c -0.7034,0.001 -1.3952,-0.177 -2.0111,-0.516 -0.6159,-0.339 -1.1358,-0.828 -1.5113,-1.423 -0.2807,-0.459 -0.4991,-0.954 -0.6496,-1.471 -0.1739,-0.498 -0.2295,-1.03 -0.1624,-1.553 0.1516,-0.653 0.5381,-1.2277 1.086,-1.6141 0.2246,-0.1943 0.4874,-0.3395 0.7714,-0.4263 0.394,-0.0914 0.8037,-0.0914 1.1977,0 0.6723,0.0941 1.3243,0.2999 1.9283,0.609 0.663,0.3775 1.184,0.9624 1.482,1.6644 0.022,0.049 0.033,0.101 0.034,0.154 0.001,0.053 -0.009,0.106 -0.029,0.155 -0.019,0.05 -0.049,0.094 -0.087,0.132 -0.037,0.037 -0.082,0.067 -0.131,0.087 -0.048,0.022 -0.1,0.034 -0.152,0.036 -0.053,10e-4 -0.105,-0.008 -0.155,-0.027 -0.049,-0.019 -0.094,-0.047 -0.132,-0.084 -0.038,-0.036 -0.068,-0.08 -0.089,-0.128 -0.235,-0.541 -0.637,-0.992 -1.147,-1.289 -0.5182,-0.2627 -1.0778,-0.4344 -1.6542,-0.5076 -0.2771,-0.0648 -0.5654,-0.0648 -0.8425,0 -0.1834,0.06 -0.3526,0.1567 -0.4973,0.2843 -0.3833,0.2663 -0.663,0.6573 -0.7917,1.1063 -0.0442,0.396 0.008,0.796 0.1522,1.167 0.1211,0.447 0.3057,0.874 0.5481,1.269 0.2481,0.382 0.5698,0.71 0.9462,0.966 0.3764,0.257 0.8,0.435 1.2462,0.526 0.882,0.186 1.802,0.015 2.558,-0.477 0.092,-0.058 0.203,-0.078 0.309,-0.055 0.106,0.023 0.199,0.086 0.259,0.177 0.058,0.09 0.077,0.199 0.054,0.304 -0.023,0.105 -0.086,0.196 -0.176,0.254 -0.7,0.455 -1.519,0.691 -2.354,0.68 z"
         fill="#231f20"
         style="stroke-width:0.092626" />
      <path
         id="Vector_41"
         d="m 116.055,113.296 c 0,0 -3.4,1.705 -6.161,-0.203 -0.771,-0.476 -1.43,-1.114 -1.931,-1.869 -0.501,-0.755 -0.833,-1.61 -0.972,-2.506 0,0 5.156,2.578 8.587,1.289 z"
         fill="#231f20"
         style="stroke-width:0.092626;fill:#1d1d2c;fill-opacity:0.3880266" />
      <path
         id="Vector_42"
         d="m 112.939,114.453 c -1.178,0.01 -2.33,-0.345 -3.299,-1.015 -0.82,-0.516 -1.517,-1.204 -2.043,-2.018 -0.526,-0.814 -0.868,-1.732 -1.002,-2.692 -0.004,-0.078 0.012,-0.156 0.048,-0.225 0.035,-0.07 0.089,-0.129 0.155,-0.17 0.068,-0.041 0.145,-0.062 0.224,-0.062 0.078,0 0.155,0.021 0.223,0.062 0,0 5.014,2.466 8.221,1.258 0.061,-0.027 0.127,-0.042 0.193,-0.042 0.067,0 0.133,0.015 0.193,0.042 0.059,0.031 0.111,0.076 0.149,0.131 0.039,0.054 0.065,0.117 0.074,0.184 l 0.467,3.299 c 0.015,0.092 0.001,0.187 -0.041,0.271 -0.042,0.083 -0.109,0.152 -0.192,0.195 -1.054,0.5 -2.204,0.767 -3.37,0.782 z m -5.349,-4.963 c 0.466,1.326 1.358,2.461 2.538,3.227 2.03,1.431 4.567,0.64 5.409,0.305 l -0.345,-2.436 c -2.679,0.721 -6.049,-0.457 -7.602,-1.096 z"
         fill="#231f20"
         style="stroke-width:0.092626;fill:#eee6e8;fill-opacity:0.06681518" />
      <path
         id="Vector_43"
         d="m 114.33,95.8582 c 0,0 3.664,3.6438 3.146,4.5068 -0.518,0.863 -2.497,0.761 -2.497,0.761"
         fill="#ffffff"
         style="stroke-width:0.092626" />
      <path
         id="Vector_44"
         d="m 115.213,101.583 h -0.264 c -0.058,-0.003 -0.116,-0.017 -0.168,-0.042 -0.053,-0.025 -0.1,-0.06 -0.139,-0.104 -0.039,-0.043 -0.068,-0.094 -0.087,-0.149 -0.019,-0.056 -0.027,-0.114 -0.022,-0.172 -0.001,-0.06 0.012,-0.119 0.035,-0.173 0.024,-0.055 0.059,-0.104 0.103,-0.144 0.044,-0.04 0.096,-0.071 0.153,-0.089 0.056,-0.019 0.116,-0.026 0.176,-0.02 0.558,0 1.796,-0.061 2.09,-0.538 0,-0.4165 -1.38,-2.274 -3.045,-3.9589 -0.083,-0.0853 -0.13,-0.2001 -0.13,-0.3197 0,-0.1195 0.047,-0.2343 0.13,-0.3197 0.084,-0.0831 0.197,-0.1297 0.315,-0.1297 0.118,0 0.231,0.0466 0.315,0.1297 1.786,1.7762 3.796,4.06 3.207,5.0753 -0.589,1.015 -2.05,0.954 -2.669,0.954 z"
         fill="#231f20"
         style="stroke-width:0.092626" />
      <path
         id="Vector_45"
         d="m 110.08,97.9635 c 0.36,-0.157 0.471,-0.6966 0.249,-1.2052 -0.222,-0.5086 -0.693,-0.7935 -1.053,-0.6365 -0.359,0.157 -0.471,0.6966 -0.249,1.2052 0.222,0.5086 0.694,0.7936 1.053,0.6365 z"
         fill="#231f20"
         style="stroke-width:0.092626" />
      <path
         id="Vector_46"
         d="m 117.838,96.57 c 0.36,-0.157 0.471,-0.6966 0.249,-1.2052 -0.222,-0.5086 -0.693,-0.7936 -1.053,-0.6366 -0.36,0.1571 -0.471,0.6967 -0.249,1.2053 0.222,0.5085 0.694,0.7935 1.053,0.6365 z"
         fill="#231f20"
         style="stroke-width:0.092626" />
      <path
         id="Vector_47"
         d="m 118.806,102.557 c 0,0 -1.787,4.253 -6.953,1.543 z"
         fill="#ffffff"
         style="stroke-width:0.092626" />
      <path
         id="Vector_48"
         d="m 115.03,105.45 c -1.188,-0.038 -2.348,-0.366 -3.38,-0.954 -0.052,-0.027 -0.098,-0.065 -0.136,-0.11 -0.037,-0.045 -0.066,-0.097 -0.083,-0.153 -0.017,-0.056 -0.024,-0.115 -0.018,-0.174 0.005,-0.058 0.022,-0.115 0.049,-0.167 0.028,-0.052 0.065,-0.098 0.11,-0.136 0.045,-0.037 0.097,-0.066 0.153,-0.083 0.056,-0.017 0.115,-0.024 0.174,-0.018 0.058,0.005 0.115,0.022 0.167,0.049 0.617,0.395 1.31,0.655 2.033,0.765 0.724,0.11 1.463,0.068 2.169,-0.125 0.928,-0.365 1.685,-1.064 2.122,-1.959 0.02,-0.058 0.052,-0.11 0.093,-0.155 0.041,-0.045 0.091,-0.081 0.147,-0.105 0.055,-0.025 0.116,-0.038 0.176,-0.039 0.061,0 0.122,0.012 0.178,0.035 0.056,0.024 0.107,0.058 0.149,0.102 0.042,0.044 0.075,0.096 0.096,0.153 0.021,0.057 0.031,0.118 0.028,0.179 -0.003,0.061 -0.018,0.12 -0.045,0.175 -0.523,1.13 -1.466,2.011 -2.629,2.456 -0.498,0.181 -1.024,0.27 -1.553,0.264 z"
         fill="#231f20"
         style="stroke-width:0.092626" />
      <path
         id="Vector_49"
         d="m 132.031,139.473 c 0,0 11.389,31.749 19.285,28.024 3.421,-1.614 19.61,-26.776 20.158,-27.293 1.106,-1.076 2.72,-0.944 3.756,-2.03 0.523,-0.609 0.951,-1.293 1.268,-2.03 0.559,-1.087 1.076,-2.538 0.244,-3.431 -0.173,-0.173 -0.396,-0.345 -0.386,-0.589 0.01,-0.243 0.234,-0.375 0.437,-0.497 l 1.37,-0.792 c 0.315,-0.183 0.68,-0.487 0.589,-0.832 -0.092,-0.345 -0.65,-0.416 -1.015,-0.335 -3.878,0.792 -8.425,3.319 -11.764,5.308 0.198,-1.036 0.33,-2.083 0.396,-3.136 0,-0.822 -0.142,-1.888 -0.954,-2.03 -0.812,-0.142 -1.35,0.721 -1.655,1.462 -1.573,3.755 -2.548,6.699 -5.014,9.967 -2.466,3.268 -5.075,6.679 -7.612,10.008 -1.32,-0.213 -8.212,-16.859 -8.212,-16.859"
         fill="#ffffff"
         style="stroke-width:0.092626" />
      <path
         id="Vector_50"
         d="m 149.956,168.268 c -0.569,-0.008 -1.132,-0.129 -1.654,-0.355 -7.623,-3.157 -16.352,-27.273 -16.707,-28.288 -0.04,-0.117 -0.032,-0.245 0.021,-0.357 0.053,-0.112 0.147,-0.198 0.263,-0.242 0.116,-0.039 0.242,-0.031 0.352,0.022 0.11,0.053 0.195,0.147 0.237,0.262 0.091,0.244 8.942,24.736 16.24,27.74 0.383,0.178 0.8,0.271 1.223,0.271 0.422,0 0.84,-0.093 1.223,-0.271 2.537,-1.197 13.063,-16.91 17.559,-23.609 1.868,-2.801 2.325,-3.471 2.467,-3.603 0.588,-0.512 1.281,-0.89 2.03,-1.106 0.632,-0.162 1.216,-0.472 1.705,-0.904 0.484,-0.558 0.884,-1.184 1.188,-1.857 0.71,-1.391 0.812,-2.375 0.304,-2.903 l -0.071,-0.081 c -0.137,-0.11 -0.243,-0.253 -0.308,-0.416 -0.066,-0.162 -0.088,-0.339 -0.064,-0.513 0.023,-0.174 0.092,-0.338 0.198,-0.478 0.106,-0.14 0.246,-0.249 0.407,-0.319 l 1.371,-0.801 c 0.284,-0.163 0.365,-0.285 0.375,-0.315 -0.167,-0.038 -0.34,-0.038 -0.507,0 -3.766,0.761 -8.191,3.207 -11.622,5.247 -0.074,0.05 -0.16,0.076 -0.249,0.076 -0.088,0 -0.175,-0.026 -0.248,-0.076 -0.073,-0.049 -0.13,-0.118 -0.164,-0.199 -0.034,-0.082 -0.044,-0.171 -0.029,-0.257 0.191,-1.007 0.324,-2.023 0.396,-3.045 0,-0.528 -0.071,-1.462 -0.589,-1.553 -0.518,-0.092 -1.015,0.883 -1.137,1.187 -0.264,0.609 -0.497,1.198 -0.731,1.777 -1.051,2.949 -2.51,5.737 -4.334,8.282 -2.53,3.383 -5.071,6.723 -7.622,10.018 -0.052,0.066 -0.121,0.118 -0.2,0.148 -0.079,0.03 -0.164,0.039 -0.247,0.025 -1.36,-0.224 -5.948,-10.831 -8.556,-17.134 -0.025,-0.056 -0.038,-0.117 -0.039,-0.179 0,-0.061 0.012,-0.122 0.035,-0.179 0.024,-0.057 0.059,-0.109 0.103,-0.152 0.044,-0.043 0.097,-0.076 0.154,-0.099 0.056,-0.024 0.116,-0.037 0.177,-0.038 0.061,0 0.121,0.012 0.178,0.036 0.056,0.024 0.106,0.059 0.148,0.103 0.042,0.044 0.075,0.096 0.096,0.153 2.984,7.207 6.516,14.91 7.704,16.372 2.446,-3.197 4.902,-6.405 7.328,-9.632 1.776,-2.497 3.194,-5.231 4.213,-8.12 l 0.73,-1.787 c 0.538,-1.279 1.31,-1.898 2.172,-1.735 1.076,0.203 1.401,1.431 1.34,2.517 -0.043,0.741 -0.124,1.48 -0.243,2.213 3.349,-1.97 7.46,-4.131 11.053,-4.862 0.802,-0.163 1.421,0.101 1.583,0.659 0.082,0.295 0.082,0.853 -0.801,1.361 l -1.371,0.801 c -0.079,0.039 -0.151,0.09 -0.213,0.153 0,0 0.112,0.061 0.163,0.111 l 0.101,0.102 c 1.208,1.279 0.173,3.299 -0.162,3.958 -0.334,0.767 -0.782,1.479 -1.33,2.112 -0.575,0.534 -1.272,0.921 -2.03,1.126 -0.635,0.168 -1.225,0.477 -1.725,0.904 -0.132,0.152 -1.158,1.674 -2.345,3.451 -7.866,11.743 -15.489,22.776 -17.925,23.933 -0.505,0.235 -1.057,0.353 -1.614,0.345 z"
         fill="#231f20"
         style="stroke-width:0.092626" />
      <path
         id="Vector_51"
         d="m 90.4568,167.527 c -0.1229,-0.007 -0.2381,-0.063 -0.3213,-0.153 -0.0833,-0.091 -0.1282,-0.211 -0.1253,-0.334 l 1.9488,-42.031 c 0.0145,-0.12 0.0716,-0.232 0.1609,-0.313 0.0894,-0.082 0.2051,-0.13 0.3263,-0.134 0.1229,0.008 0.2381,0.063 0.3213,0.154 0.0833,0.091 0.1282,0.21 0.1253,0.334 l -1.9488,42.031 c -0.0078,0.123 -0.0629,0.238 -0.1537,0.321 -0.0908,0.083 -0.2103,0.128 -0.3335,0.125 z"
         fill="#231f20"
         style="stroke-width:0.092626" />
      <path
         id="Vector_52"
         d="m 129.839,133.596 c -0.091,-0.003 -0.178,-0.031 -0.254,-0.082 -0.075,-0.05 -0.135,-0.12 -0.172,-0.202 l -3.502,-8.12 c -0.048,-0.113 -0.049,-0.241 -0.003,-0.355 0.045,-0.114 0.134,-0.205 0.246,-0.254 0.056,-0.025 0.117,-0.039 0.178,-0.04 0.061,-0.001 0.122,0.01 0.178,0.033 0.057,0.022 0.109,0.056 0.152,0.099 0.044,0.043 0.078,0.095 0.101,0.151 l 3.502,8.12 c 0.025,0.056 0.039,0.116 0.04,0.178 0.001,0.061 -0.01,0.122 -0.033,0.178 -0.023,0.057 -0.056,0.109 -0.099,0.152 -0.044,0.044 -0.095,0.078 -0.151,0.101 -0.059,0.024 -0.12,0.038 -0.183,0.041 z"
         fill="#231f20"
         style="stroke-width:0.092626" />
      <path
         id="Vector_53"
         d="m 94.3341,262.247 c 0,0 -7.5719,-4.192 -10.7691,0 -1.9913,2.817 -3.1965,6.114 -3.4916,9.551 0,0 15.9355,2.66 16.0573,0 0.1218,-2.659 -1.7966,-9.551 -1.7966,-9.551 z"
         fill="#231f20"
         style="stroke-width:0.092626;fill:#1d1d2c;fill-opacity:1" />
      <path
         id="Vector_54"
         d="M 279.48,117.772 H 172.773 c -3.111,0 -5.633,2.522 -5.633,5.633 v 26.441 c 0,3.111 2.522,5.633 5.633,5.633 H 279.48 c 3.111,0 5.633,-2.522 5.633,-5.633 v -26.441 c 0,-3.111 -2.522,-5.633 -5.633,-5.633 z"
         fill="#ffffff"
         style="stroke-width:0.092626" />
      <path
         id="Vector_55"
         d="M 279.47,155.946 H 172.773 c -1.615,0 -3.164,-0.641 -4.306,-1.784 -1.142,-1.142 -1.784,-2.691 -1.784,-4.306 v -26.471 c 0,-1.615 0.642,-3.164 1.784,-4.306 1.142,-1.142 2.691,-1.784 4.306,-1.784 H 279.47 c 1.615,0 3.164,0.642 4.306,1.784 1.142,1.142 1.784,2.691 1.784,4.306 v 26.39 c 0.011,0.807 -0.139,1.607 -0.44,2.355 -0.301,0.749 -0.748,1.43 -1.315,2.004 -0.566,0.574 -1.241,1.03 -1.985,1.341 -0.745,0.311 -1.543,0.471 -2.35,0.471 z M 172.773,118.239 c -1.372,0.003 -2.687,0.549 -3.657,1.519 -0.97,0.97 -1.517,2.285 -1.519,3.657 v 26.39 c 0.002,1.373 0.549,2.688 1.519,3.658 0.97,0.97 2.285,1.516 3.657,1.519 H 279.47 c 1.372,-0.003 2.687,-0.549 3.657,-1.519 0.971,-0.97 1.517,-2.285 1.52,-3.658 v -26.42 c -0.003,-1.372 -0.549,-2.687 -1.52,-3.657 -0.97,-0.971 -2.285,-1.517 -3.657,-1.52 z"
         fill="#231f20"
         style="stroke-width:0.092626" />
      <path
         id="Vector_56"
         d="m 193.672,127.069 h -16.971 v 19.113 h 16.971 z"
         fill="#eb9b00"
         style="stroke-width:0.092626;fill:#0a9396;fill-opacity:1" />
      <path
         id="Vector_57"
         d="m 262.235,129.353 h -55.449 c -1.379,0 -2.497,1.118 -2.497,2.497 v 0.01 c 0,1.379 1.118,2.497 2.497,2.497 h 55.449 c 1.379,0 2.497,-1.118 2.497,-2.497 v -0.01 c 0,-1.379 -1.118,-2.497 -2.497,-2.497 z"
         fill="#d1d3d4"
         style="stroke-width:0.092626;fill:#030314;fill-opacity:1" />
      <path
         id="Vector_58"
         d="m 244.219,138.904 h -37.433 c -1.379,0 -2.497,1.118 -2.497,2.497 v 0.01 c 0,1.379 1.118,2.497 2.497,2.497 h 37.433 c 1.379,0 2.497,-1.118 2.497,-2.497 v -0.01 c 0,-1.379 -1.118,-2.497 -2.497,-2.497 z"
         fill="#d1d3d4"
         style="stroke-width:0.092626;fill:#030314;fill-opacity:1" />
      <path
         id="Vector_59"
         d="m 119.778,177.754 -64.5594,17.419 c -2.0836,0.563 -3.317,2.707 -2.7548,4.791 l 7.7869,28.86 c 0.5622,2.083 2.7072,3.317 4.7908,2.755 l 64.5595,-17.42 c 2.084,-0.562 3.317,-2.707 2.755,-4.791 l -7.787,-28.859 c -0.562,-2.084 -2.707,-3.317 -4.791,-2.755 z"
         fill="#ffffff"
         style="stroke-width:0.092626" />
      <path
         id="Vector_60"
         d="m 64.0161,232.183 c -0.9593,-0.006 -1.8903,-0.326 -2.6508,-0.911 -0.7606,-0.584 -1.309,-1.402 -1.5615,-2.327 l -7.785,-28.856 c -0.3025,-1.115 -0.1521,-2.303 0.4183,-3.307 0.5704,-1.004 1.5146,-1.742 2.6267,-2.053 l 64.5542,-17.417 c 1.114,-0.302 2.303,-0.152 3.307,0.418 1.004,0.571 1.741,1.515 2.052,2.627 l 7.785,28.856 c 0.305,1.115 0.156,2.305 -0.415,3.309 -0.571,1.005 -1.516,1.742 -2.63,2.051 L 65.163,231.99 c -0.3724,0.113 -0.7579,0.178 -1.1469,0.193 z m 56.7689,-54.1 c -0.302,0.001 -0.602,0.042 -0.893,0.122 l -64.5542,17.418 c -0.4367,0.117 -0.8459,0.32 -1.2043,0.596 -0.3583,0.276 -0.6587,0.62 -0.884,1.012 -0.2253,0.392 -0.3711,0.825 -0.429,1.273 -0.0579,0.449 -0.0269,0.904 0.0915,1.341 l 7.785,28.856 c 0.1147,0.438 0.3157,0.848 0.5911,1.208 0.2753,0.359 0.6196,0.659 1.0126,0.883 0.7933,0.456 1.7344,0.58 2.6187,0.345 L 129.473,213.72 c 0.438,-0.118 0.848,-0.321 1.207,-0.598 0.359,-0.277 0.659,-0.622 0.884,-1.016 0.227,-0.391 0.373,-0.823 0.43,-1.27 0.058,-0.448 0.025,-0.903 -0.095,-1.338 l -7.785,-28.867 c -0.198,-0.731 -0.632,-1.377 -1.233,-1.837 -0.602,-0.461 -1.338,-0.71 -2.096,-0.711 z"
         fill="#231f20"
         style="stroke-width:0.092626" />
      <path
         id="Vector_61"
         d="m 79.7045,199.024 -16.3848,4.421 4.9789,18.452 16.3848,-4.421 z"
         fill="#d1d3d4"
         style="stroke-width:0.092626;fill:#0a9396;fill-opacity:1" />
      <path
         id="Vector_62"
         d="m 115.334,190.401 -27.9387,7.539 c -1.2935,0.349 -2.0591,1.68 -1.7101,2.974 l 0.0396,0.147 c 0.349,1.293 1.6806,2.059 2.9741,1.71 l 27.9381,-7.539 c 1.294,-0.349 2.06,-1.68 1.711,-2.974 l -0.04,-0.147 c -0.349,-1.293 -1.681,-2.059 -2.974,-1.71 z"
         fill="#d1d3d4"
         style="stroke-width:0.092626;fill:#030314;fill-opacity:1" />
      <path
         id="Vector_63"
         d="m 111.496,201.332 -21.853,5.897 c -1.1582,0.312 -1.8437,1.504 -1.5312,2.663 l 0.1719,0.637 c 0.3125,1.158 1.5047,1.843 2.6629,1.531 L 112.8,206.163 c 1.158,-0.312 1.843,-1.504 1.531,-2.663 l -0.172,-0.637 c -0.313,-1.158 -1.505,-1.843 -2.663,-1.531 z"
         fill="#d1d3d4"
         style="stroke-width:0.092626;fill:#030314;fill-opacity:1" />
      <path
         id="Vector_64"
         d="m 76.8558,137.169 c 0,0 -11.0229,26.39 -9.8861,29.435 1.1368,3.045 12.5048,22.025 12.5048,22.025 0,0 3.3495,10.363 7.8663,7.958 2.913,-1.543 1.3804,-10.455 1.3804,-10.455 l 3.3292,-0.893 c 0,0 -5.4709,-2.263 -6.09,-3.349 -0.6192,-1.086 -6.496,-17.255 -6.496,-17.255 l 10.0891,-23.812"
         fill="#ffffff"
         style="stroke-width:0.092626" />
      <path
         id="Vector_65"
         d="m 85.9807,197.419 c -0.4284,-0.006 -0.8518,-0.092 -1.2485,-0.254 -3.2784,-1.329 -5.4607,-7.653 -5.684,-8.343 -0.7511,-1.248 -11.3781,-19.041 -12.5048,-22.046 -1.1266,-3.004 8.7493,-27.06 9.8861,-29.78 0.0472,-0.114 0.1378,-0.205 0.252,-0.253 0.1142,-0.047 0.2426,-0.048 0.357,-0.001 0.1126,0.05 0.2019,0.141 0.2491,0.254 0.0473,0.113 0.049,0.241 0.0047,0.355 -4.4051,10.546 -10.6677,26.989 -9.8861,29.1 1.1165,2.964 12.3525,21.752 12.4642,21.945 0.0038,0.03 0.0038,0.061 0,0.091 0,0.071 2.1721,6.608 5.1663,7.816 0.3248,0.137 0.6771,0.198 1.0293,0.177 0.3522,-0.021 0.6947,-0.123 1.0007,-0.299 2.1417,-1.137 1.5428,-7.582 1.1368,-9.968 -0.017,-0.113 0.0075,-0.229 0.069,-0.326 0.0615,-0.097 0.156,-0.168 0.266,-0.201 l 2.03,-0.548 c -1.7458,-0.772 -4.5777,-2.132 -5.075,-3.045 -0.6192,-1.107 -6.2829,-16.616 -6.5265,-17.255 -0.0451,-0.111 -0.0451,-0.235 0,-0.345 L 89.1373,140.64 c 0.0569,-0.099 0.1484,-0.174 0.257,-0.211 0.1086,-0.036 0.2268,-0.031 0.3321,0.014 0.1052,0.045 0.1903,0.127 0.2388,0.231 0.0486,0.104 0.0574,0.222 0.0247,0.331 l -10.018,23.64 c 1.6747,4.598 5.9276,16.128 6.4046,16.981 0.335,0.588 3.2379,2.03 5.8464,3.146 0.0915,0.035 0.1695,0.098 0.2225,0.18 0.053,0.082 0.0782,0.179 0.0719,0.277 -0.0087,0.096 -0.0463,0.187 -0.108,0.262 -0.0616,0.074 -0.1443,0.128 -0.2371,0.154 l -2.9232,0.792 c 0.2943,1.959 1.1469,9.013 -1.685,10.525 -0.4826,0.279 -1.0262,0.436 -1.5833,0.457 z"
         fill="#231f20"
         style="stroke-width:0.092626" />
      <path
         id="Vector_66"
         d="m 140.578,258.857 -4.01,5.197 -13.114,-2.629 -0.558,6.831 c 0,0 27.872,5.745 29.009,2.669 1.137,-3.075 -11.327,-12.068 -11.327,-12.068 z"
         fill="#231f20"
         style="stroke-width:0.092626;fill:#1d1d2c;fill-opacity:1" />
    </g>
  </g>
  <defs
     id="defs74">
    <clipPath
       id="clip0_2:2">
      <rect
         width="451"
         height="318"
         fill="#ffffff"
         id="rect71"
         x="0"
         y="0" />
    </clipPath>
  </defs>
</svg>
