<svg width="451" height="438" viewBox="0 0 451 438" fill="none" xmlns="http://www.w3.org/2000/svg">
<g id="Characters standing / Woman standing / 4" clip-path="url(#clip0_19:10)">
<g id="Characters standing / Woman standing / 4_2">
<g id="Woman">
<path id="Base" d="M204.252 433.668C205.448 433.668 206.417 434.638 206.417 435.834C206.417 437.03 205.448 438 204.252 438H125.823C124.627 438 123.658 437.03 123.658 435.834C123.658 434.638 124.627 433.668 125.823 433.668H204.252ZM357.261 438H307.942C306.787 438 305.777 437.167 305.777 436.167V435.501C305.777 434.501 306.739 433.668 307.942 433.668H357.261C358.416 433.668 359.426 434.501 359.426 435.501V436.167C359.426 437.167 358.464 438 357.261 438Z" fill="#3CD3D1"/>
<path id="Shoes" d="M204.505 433.683C204.422 433.673 204.338 433.668 204.252 433.668H126.164C126.112 433.404 126.086 433.072 126.093 432.642C126.147 432.306 126.154 431.921 126.257 431.538C126.875 429.238 127.623 427.711 129.812 426.353C132.002 424.995 134.237 423.782 136.565 422.716C145.153 418.678 148.088 418.729 153.735 415.025C156.072 413.477 158.221 411.685 160.227 409.746C161.565 408.454 164.457 406.354 168.903 403.447L204.799 403.447L204.505 433.683ZM357.524 433.682C357.437 433.673 357.349 433.668 357.261 433.668H308.107L311.997 409.114L346.448 404.446L357.524 433.682Z" fill="#1D1D2C"/>
<path id="Legs" d="M255.93 243.593C244.985 279.814 238.151 304.791 226.623 342.605C224.238 349.371 223.358 354.503 223.983 357.999C224.921 363.244 229.547 372.649 231.801 382.904C234.056 393.159 210.937 381.907 191.278 378.13C171.619 374.354 151.368 370.5 151.894 367.554C153.167 360.552 173.137 351.394 174.716 342.605C176.295 333.817 177.491 324.246 177.712 322.671C187.828 262.561 197.32 216.374 202.464 191.252C204.634 180.479 208.803 160.139 223.983 139.319C224.971 138.002 225.771 136.977 226.241 136.343C227.637 134.867 229.199 133.753 230.796 132.916C230.76 132.62 230.725 132.324 230.689 132.029C234.538 129.17 237.148 127.102 252.719 125.916C253.104 125.909 253.536 125.853 253.921 125.847C269.018 125.054 281.834 130.564 291.502 142.45C297.672 151.637 302.507 162.937 306.006 176.35C309.218 188.662 321.455 243.854 342.719 341.926C343.676 344.759 344.603 346.837 345.5 348.161C348.49 352.571 357.314 358.586 363.543 367.037C369.772 375.489 344.077 374.615 324.582 379.164C305.087 383.713 285.02 388.431 284.303 385.526C282.969 380.049 291.802 368.563 294.473 359.714C286.377 337.686 278.425 314.801 270.713 291.152C265.474 275.04 260.555 259.178 255.93 243.593Z" fill="#0A9396"/>
<path id="Shadow T shirt" opacity="0.176986" d="M255.783 243.701C244.89 279.762 238.062 304.706 226.566 342.416C224.181 349.182 223.301 354.314 223.927 357.81C224.865 363.055 229.49 372.46 231.745 382.715C233.999 392.97 210.881 381.718 191.221 377.941C171.562 374.165 151.311 370.311 151.837 367.365C153.11 360.363 173.081 351.205 174.66 342.416C176.239 333.627 177.435 324.057 177.655 322.482C187.771 262.372 197.263 216.185 202.407 191.063C204.577 180.29 208.746 159.95 223.927 139.13C224.914 137.813 225.714 136.788 226.185 136.154C227.551 134.708 229.078 133.611 230.64 132.779C232.426 147.689 234.427 164.626 237.336 177.986C240.28 191.505 244.202 204.319 248.287 217.775C250.696 226.327 253.193 234.971 255.783 243.701Z" fill="#444444"/>
<path id="T shirt" d="M274.388 57.9203C277.037 58.6877 279.546 59.8085 281.721 61.2011C291.05 67.1738 296.542 78.5576 292.279 89.7659C291.391 92.101 288.408 94.9281 283.332 98.2472C282.92 98.2935 282.511 98.334 282.106 98.369L280.51 115.615C280.461 116.145 280.413 116.626 280.413 117.155C280.365 119.562 279.932 123.124 277.863 125.723C274.976 129.381 270.694 134.675 252.795 134.868C233.548 135.06 228.929 129.766 225.946 126.012C223.877 123.461 223.348 120.38 223.3 117.877C223.3 117.348 223.252 116.866 223.203 116.337L221.505 98.2365C212.48 96.7247 211.102 90.7428 209.613 86.1138C206.579 76.6832 213.059 65.5945 221.106 60.2913C226.837 56.5138 233.867 54.9279 240.409 56.2801C243.415 55.3933 246.664 54.895 250.1 54.8727H252.843C261.151 54.823 268.73 55.5534 274.388 57.9203Z" fill="#EB9B00"/>
<path id="Shadow T shirt_2" opacity="0.176986" d="M221.487 98.0533C212.646 96.4859 211.277 90.5596 209.8 85.9657C206.766 76.5352 213.246 65.4465 221.293 60.1433C227.079 56.3296 234.189 54.7497 240.784 56.1719C230.633 59.0383 223.198 66.3174 220.653 74.703C219.883 77.2059 219.739 79.9012 220.028 82.5004L221.487 98.0533Z" fill="#444444"/>
<path id="Skin" d="M237.068 47.8352C236.942 47.8669 236.813 47.8988 236.683 47.9311C232.461 48.9868 232.707 48.9075 232.413 48.9834C229.294 49.4407 226.719 49.0194 226.245 48.8897C222.298 48.0829 218.56 40.1498 217.869 29.3418C217.785 28.4674 217.846 27.6032 217.858 26.7356L218.603 18.151C218.737 16.2304 219.396 14.3948 220.47 12.8294C220.579 12.6441 220.685 12.5068 220.792 12.3694C221.161 11.9128 221.531 11.4562 221.894 11.0955C223.297 9.64973 224.91 8.65283 226.548 7.99539C230.399 6.72081 234.633 6.87223 236.961 7.37285C237.294 7.44437 238.34 7.66227 239.814 7.95842C241.183 8.39189 242.513 8.67796 243.902 8.82334C244.667 8.92507 245.196 9.63757 245.142 10.4058L243.803 22.664C243.77 22.9578 247.395 20.1857 251.147 21.178C252.356 21.498 254.025 23.1981 256.153 26.2783C255.395 28.6002 254.998 29.7942 254.961 29.8604C253.388 32.7405 252.234 34.5512 251.499 35.2927L251.207 43.0124L251.702 54.8727H250.1C245.522 54.9024 241.275 55.7772 237.495 57.2899L237.068 47.8352ZM340.908 376.258L346.451 404.455L312.091 409.289L308.442 382.757C313.618 381.615 319.204 380.309 324.745 379.016C329.933 377.805 335.56 376.979 340.908 376.258ZM177.654 375.299C182.093 376.189 186.784 377.088 191.441 377.982C197.544 379.155 203.98 381.048 209.888 382.794L204.806 403.971H168.406L177.654 375.299ZM219.734 126.434C214.227 130.807 208.641 132.778 202.974 132.349C186.643 131.112 169.837 115.009 152.556 84.0395L152.559 84.0377L152.558 84.0374L135.465 51.3308C139.731 47.7659 143.67 47.9046 147.284 51.7469C150.614 56.1197 152.531 58.7292 153.036 59.5753C160.595 72.2461 166.683 70.0009 174.079 79.3129L197.14 99.1751L205.57 90.4737C204.51 86.4559 203.488 82.1977 202.507 77.699C199.949 75.9713 196.006 72.8272 189.577 67.4396C188.974 66.9344 186.006 66.2626 180.673 65.4242C172.748 66.4632 169.166 64.2288 169.928 58.7209L203.933 56.4926C207.551 56.2555 211.039 57.8876 213.176 60.8179C215.761 64.3618 217.615 67.3264 218.738 69.7117L239.131 100.301L249.739 83.084C252.841 88.6559 257.452 91.1782 263.806 94.7727C269.026 97.7254 275.31 98.844 282.66 98.1285C268.489 126.184 254.589 140.411 240.96 140.808C233.06 141.038 225.985 136.247 219.734 126.434Z" fill="#ED9474"/>
<path id="Shadow Arm" opacity="0.2" d="M220.036 126.37C214.503 130.787 208.89 132.78 203.196 132.349C186.865 131.112 170.059 115.009 152.778 84.0395L152.781 84.0377L152.78 84.0374L135.687 51.3308C139.953 47.7658 143.893 47.9045 147.506 51.7469C150.836 56.1197 152.753 58.7292 153.258 59.5753C160.817 72.2461 166.905 70.0009 174.301 79.3129L197.362 99.1751L205.841 90.4231C209.974 106.052 214.706 118.035 220.036 126.37Z" fill="#8C2A00"/>
<path id="Shadow" d="M237.254 51.8939L242.937 46.3304L237.081 47.831L237.254 51.8939Z" fill="#482D1F"/>
<path id="Hair" d="M260.781 31.5627C260.15 33.8525 260.331 35.6051 261.323 36.8204C266.298 42.9133 268.558 43.8039 267.314 46.034C265.893 48.5811 260.6 49.2518 251.434 48.0462C245.327 43.9147 246.697 36.4628 246.705 35.8132C246.703 35.8077 246.7 35.8022 246.698 35.7967C247.335 35.6963 249.32 35.5442 250.964 34.0693C252.607 32.6402 253.697 30.1593 253.056 27.6054C252.504 25.1543 250.337 23.0246 248.03 22.9114C246.731 22.8688 245.631 23.4191 245.48 23.5051C243.723 24.4919 242.848 25.9746 242.848 25.9746L242.299 27.0139C242.146 26.7378 242.001 26.4801 241.864 26.2436C238.766 22.2634 235.665 18.3313 232.519 14.3477C226.956 12.6559 221.728 12.7727 220.898 12.2321C221.267 11.7755 221.637 11.3188 222 10.9582C223.403 9.5124 225.016 8.5155 226.654 7.85806C230.505 6.58348 234.739 6.7349 237.067 7.23552C237.4 7.30704 238.446 7.52495 239.921 7.82109C240.349 7.89932 240.778 7.97755 241.302 8.0625C242.544 8.24582 243.497 8.409 244.07 8.49731C251.332 9.4878 254.221 8.86964 257.728 11.1414C258.373 11.5725 259.845 12.5923 261.024 14.3634C264.425 19.5228 262.895 25.5434 262.479 27.3479C262.064 28.9618 261.457 30.3601 260.781 31.5627ZM217.369 23.4154C216.903 23.2612 216.783 22.6645 217.158 22.3711C217.635 22.0417 218.41 21.652 219.371 21.7215C221.34 21.8665 223.349 23.277 221.165 23.6877C219.769 24.0012 218.259 23.6702 217.369 23.4154ZM226.634 24.5534C226.168 24.3992 226.047 23.8024 226.471 23.515C226.947 23.1856 227.722 22.7958 228.731 22.8712C230.701 23.0162 232.703 24.4745 230.526 24.8374C229.082 25.145 227.572 24.814 226.634 24.5534Z" fill="#BB3E03"/>
<path id="Phone" d="M138.59 34.3606C139.869 33.5239 141.311 33.446 141.814 34.2234L165.554 69.3005C166.057 70.0779 165.495 71.3833 164.22 72.2679C162.94 73.1046 161.498 73.1825 160.995 72.4052L137.255 37.328C136.701 36.5069 137.311 35.1973 138.59 34.3606Z" fill="#474961"/>
<path id="Eyes" d="M220.499 27.5339C220.495 28.3577 220.474 29.713 219.926 30.2276C219.2 31.0113 217.989 28.6319 218.511 27.1442C218.736 26.493 219.094 26.3429 219.476 26.3899C220.049 26.4602 220.474 26.9489 220.499 27.5339ZM229.035 28.2913C229.079 29.1211 229.01 30.4705 228.462 30.9851C227.736 31.7687 226.525 29.3893 227.047 27.9017C227.272 27.2504 227.63 27.1004 228.012 27.1473C228.585 27.2177 229.01 27.7063 229.035 28.2913Z" fill="#482D1F"/>
<path id="Mouth" d="M225.463 37.6482C225.809 37.5938 226.656 37.4068 226.864 36.8989C226.876 36.8034 226.941 36.6659 226.905 36.5645C226.749 36.2544 226.111 36.3215 225.239 36.3114C223.693 36.2671 222.469 35.9712 222.469 35.9712C222.469 35.9712 222.734 36.9736 222.944 37.2418C223.327 38.0648 224.92 37.727 225.463 37.6482Z" fill="#482D1F"/>
<path id="Nose" d="M221.745 33.2095L221.735 33.2624C221.671 33.7838 221.969 34.3118 222.478 34.4624C222.572 34.4833 222.625 34.4936 222.678 34.5037C223.179 34.5986 223.541 34.648 224.842 34.8078C225.106 34.8402 225.346 34.6526 225.378 34.3888C225.411 34.1249 225.223 33.8848 224.959 33.8524C223.681 33.6954 223.329 33.6473 222.857 33.5578C222.808 33.5485 222.759 33.5389 222.709 33.529C222.72 33.5303 222.687 33.47 222.689 33.3987L223.881 28.3913L223.893 28.3222L224.143 25.4918C224.167 25.227 223.971 24.9934 223.706 24.9699C223.442 24.9465 223.208 25.1422 223.185 25.407L222.937 28.2023L221.745 33.2095Z" fill="#482D1F"/>
<path id="Shadow_2" d="M250.157 83.2341C249.681 76.3702 250.818 71.2521 253.527 67.857C253.776 67.5454 253.725 67.0911 253.413 66.8423C253.102 66.5936 252.648 66.6445 252.399 66.9561C249.432 70.6737 248.218 76.1406 248.717 83.3341C248.745 83.7319 249.09 84.032 249.487 84.0044C249.885 83.9768 250.185 83.6319 250.157 83.2341Z" fill="#482D1F"/>
<g id="tel&#195;&#169;fono" clip-path="url(#clip1_19:10)">
<g id="Layer_1">
<g id="Group">
<path id="Vector" d="M152.885 38.2828C156.61 38.2828 159.63 35.2581 159.63 31.527C159.63 27.7959 156.61 24.7712 152.885 24.7712C149.16 24.7712 146.14 27.7959 146.14 31.527C146.14 35.2581 149.16 38.2828 152.885 38.2828Z" fill="#FF0101"/>
</g>
<g id="Group_2" opacity="0.2">
<g id="Group_3" opacity="0.2">
<path id="Vector_2" opacity="0.2" d="M152.253 30.1125C152.168 29.0991 151.114 28.6135 151.072 28.5924C151.009 28.5713 150.967 28.5713 150.925 28.5713C149.702 28.7824 149.533 29.4791 149.512 29.5214C149.512 29.5636 149.512 29.6058 149.512 29.648C150.967 34.166 153.981 34.9893 154.972 35.2638C155.056 35.2849 155.119 35.306 155.161 35.3271C155.182 35.3271 155.203 35.3482 155.225 35.3482C155.267 35.3482 155.288 35.3482 155.33 35.3271C155.351 35.306 156.068 34.9682 156.257 33.8704C156.257 33.8282 156.257 33.7648 156.236 33.7226C156.215 33.7015 155.836 32.9837 154.803 32.7304C154.74 32.7092 154.655 32.7304 154.592 32.7726C154.255 33.047 153.812 33.3426 153.623 33.3848C152.316 32.7515 151.578 31.5059 151.557 31.2736C151.536 31.147 151.831 30.6825 152.189 30.3025C152.231 30.2603 152.253 30.1758 152.253 30.1125Z" fill="#231F20"/>
</g>
</g>
<g id="Group_4">
<g id="Group_5">
<path id="Vector_3" d="M152.253 29.6903C152.168 28.6769 151.114 28.1913 151.072 28.1702C151.009 28.1491 150.967 28.1491 150.925 28.1491C149.702 28.3602 149.533 29.0569 149.512 29.0991C149.512 29.1413 149.512 29.1836 149.512 29.2258C150.967 33.7437 153.981 34.5671 154.972 34.8415C155.056 34.8627 155.119 34.8838 155.161 34.9049C155.182 34.9049 155.203 34.926 155.225 34.926C155.267 34.926 155.288 34.926 155.33 34.9049C155.351 34.8838 156.068 34.546 156.257 33.4482C156.257 33.4059 156.257 33.3426 156.236 33.3004C156.215 33.2793 155.836 32.5615 154.803 32.3081C154.74 32.287 154.655 32.3081 154.592 32.3503C154.255 32.6248 153.812 32.9204 153.623 32.9626C152.316 32.3292 151.578 31.0836 151.557 30.8514C151.536 30.7247 151.831 30.2603 152.189 29.8803C152.231 29.838 152.253 29.7536 152.253 29.6903Z" fill="white"/>
</g>
</g>
</g>
</g>
</g>
</g>
</g>
<defs>
<clipPath id="clip0_19:10">
<rect width="498" height="438" fill="white"/>
</clipPath>
<clipPath id="clip1_19:10">
<rect width="13.4898" height="13.5116" fill="white" transform="translate(146.14 24.7712)"/>
</clipPath>
</defs>
</svg>
