<svg width="375" height="130" viewBox="0 0 375 130" fill="none" xmlns="http://www.w3.org/2000/svg">
<g id="bars/nav bar/small">
<g id="iPhone X/Status Bars/Status Bar (Black)">
<g id="Battery">
<rect id="Border" opacity="0.35" x="330.693" y="25.8936" width="21" height="10.3333" rx="2.16667" transform="rotate(-10.8812 330.693 25.8936)" stroke="black"/>
<path id="Cap" opacity="0.4" d="M353.387 24.7559L354.142 28.684C354.868 28.1994 355.233 27.3267 355.068 26.4692C354.904 25.6118 354.241 24.9367 353.387 24.7559" fill="black"/>
<rect id="Capacity" x="332.45" y="27.0834" width="18" height="7.33333" rx="1.33333" transform="rotate(-10.8812 332.45 27.0834)" fill="#35F416"/>
</g>
<path id="Wifi" fill-rule="evenodd" clip-rule="evenodd" d="M311.705 33.4335C314.155 32.9626 316.693 33.4511 318.793 34.798C318.952 34.9027 319.166 34.8599 319.272 34.7022L320.302 33.1664C320.356 33.0864 320.376 32.9883 320.357 32.8938C320.338 32.7993 320.283 32.7161 320.202 32.6627C314.683 29.0918 307.329 30.5053 303.527 35.8682C303.472 35.9475 303.451 36.0454 303.469 36.1401C303.486 36.2349 303.541 36.3187 303.621 36.3731L305.147 37.4174C305.304 37.5247 305.519 37.4852 305.627 37.329C307.079 35.2991 309.255 33.9046 311.705 33.4335ZM312.512 37.6307C313.858 37.3718 315.253 37.6227 316.424 38.3345C316.584 38.4368 316.796 38.3932 316.902 38.2361L317.931 36.7006C317.985 36.62 318.005 36.521 317.986 36.4258C317.966 36.3306 317.91 36.2471 317.828 36.194C314.246 33.9514 309.54 34.856 307.044 38.2671C306.988 38.3465 306.967 38.4451 306.984 38.5407C307.002 38.6363 307.057 38.7209 307.137 38.7755L308.662 39.8203C308.818 39.9267 309.032 39.8886 309.142 39.7344C309.966 38.6396 311.167 37.8899 312.512 37.6307ZM315.613 39.9631C315.633 40.0583 315.613 40.1578 315.558 40.2379L313.777 42.8914C313.725 42.9694 313.644 43.0232 313.552 43.0409C313.46 43.0586 313.365 43.0387 313.287 42.9857L310.65 41.1814C310.569 41.1274 310.513 41.0424 310.497 40.9463C310.481 40.8503 310.505 40.7517 310.563 40.674C311.744 39.2098 313.81 38.8127 315.45 39.7346C315.533 39.7851 315.592 39.8678 315.613 39.9631Z" fill="#1D1D2C" fill-opacity="0.8"/>
<path id="Cellular Connection" fill-rule="evenodd" clip-rule="evenodd" d="M296.183 34.1912L295.077 34.4038C294.467 34.5212 294.067 35.1114 294.184 35.7222L296.026 45.3057C296.144 45.9164 296.734 46.3163 297.345 46.1989L298.451 45.9864C299.061 45.869 299.461 45.2787 299.344 44.668L297.502 35.0845C297.384 34.4737 296.794 34.0738 296.183 34.1912ZM290.413 37.976L291.519 37.7634C292.13 37.646 292.72 38.0459 292.837 38.6566L294.183 45.66C294.301 46.2707 293.901 46.861 293.29 46.9784L292.184 47.1909C291.574 47.3083 290.983 46.9084 290.866 46.2977L289.52 39.2943C289.402 38.6836 289.802 38.0934 290.413 37.976ZM286.854 41.3356L285.749 41.5481C285.138 41.6655 284.738 42.2558 284.855 42.8665L285.706 47.2897C285.823 47.9004 286.413 48.3003 287.024 48.1829L288.13 47.9703C288.741 47.8529 289.14 47.2627 289.023 46.652L288.173 42.2288C288.055 41.6181 287.465 41.2182 286.854 41.3356ZM282.119 44.5391L281.013 44.7517C280.403 44.8691 280.003 45.4593 280.12 46.0701L280.545 48.2817C280.663 48.8924 281.253 49.2923 281.864 49.1749L282.969 48.9623C283.58 48.8449 283.98 48.2547 283.863 47.6439L283.438 45.4324C283.32 44.8216 282.73 44.4217 282.119 44.5391Z" fill="#1D1D2C" fill-opacity="0.8"/>
</g>
</g>
</svg>
